<?xml version="1.0" encoding="UTF-8" standalone="no"?>
<svg
   xmlns:dc="http://purl.org/dc/elements/1.1/"
   xmlns:cc="http://creativecommons.org/ns#"
   xmlns:rdf="http://www.w3.org/1999/02/22-rdf-syntax-ns#"
   xmlns:svg="http://www.w3.org/2000/svg"
   xmlns="http://www.w3.org/2000/svg"
   viewBox="0 0 87.73333 258.22668"
   height="258.22668"
   width="87.73333"
   xml:space="preserve"
   id="svg2"
   version="1.1"><metadata
     id="metadata8"><rdf:RDF><cc:Work
         rdf:about=""><dc:format>image/svg+xml</dc:format><dc:type
           rdf:resource="http://purl.org/dc/dcmitype/StillImage" /></cc:Work></rdf:RDF></metadata><defs
     id="defs6" /><g
     transform="matrix(1.3333333,0,0,-1.3333333,0,258.22667)"
     id="g10"><g
       transform="scale(0.1)"
       id="g12"><path
         id="path14"
         style="fill:#000000;fill-opacity:1;fill-rule:nonzero;stroke:none"
         d="m 0,1290.64 h 24.7813 v 621.31 h 94.8127 v 24.78 H 0 v -646.09" /><path
         id="path16"
         style="fill:#000000;fill-opacity:1;fill-rule:nonzero;stroke:none"
         d="m 0,1075.89 h 24.7813 v 216.203 H 0 Z" /><path
         id="path18"
         style="fill:#000000;fill-opacity:1;fill-rule:nonzero;stroke:none"
         d="m 0,859.891 h 24.7813 v 216.203 H 0 Z" /><path
         id="path20"
         style="fill:#000000;fill-opacity:1;fill-rule:nonzero;stroke:none"
         d="M 0,644.891 H 24.7813 V 861.094 H 0 Z" /><path
         id="path22"
         style="fill:#000000;fill-opacity:1;fill-rule:nonzero;stroke:none"
         d="M 0,0.00390625 H 119.594 V 24.7852 H 24.7813 V 646.094 H 0 V 0.00390625" /><path
         id="path24"
         style="fill:#000000;fill-opacity:1;fill-rule:nonzero;stroke:none"
         d="m 257.75,1893.04 c 0,0.35 0,3.94 -4.656,3.94 -8.274,0 -34.481,-2.87 -43.832,-3.59 -2.86,-0.35 -6.809,-0.71 -6.809,-7.19 0,-4.31 3.231,-4.31 8.61,-4.31 17.25,0 17.968,-2.51 17.968,-6.09 0,-2.51 -3.23,-14.73 -5.031,-22.28 l -29.449,-117.07 c -4.309,-17.95 -5.75,-23.7 -5.75,-36.27 0,-34.13 19.051,-56.39 45.609,-56.39 42.391,0 86.563,53.51 86.563,105.23 0,32.66 -19.032,57.44 -47.77,57.44 -16.531,0 -31.25,-10.41 -42.019,-21.55 l 26.558,108.11 z M 224,1757.27 c 2.16,7.91 2.16,8.62 5.391,12.57 17.589,23.34 33.75,28.73 43.089,28.73 12.922,0 22.633,-10.78 22.633,-33.77 0,-21.19 -11.863,-62.48 -18.312,-76.14 -11.86,-24.05 -28.367,-36.98 -42.391,-36.98 -12.199,0 -24.058,9.7 -24.058,36.27 0,6.84 0,13.66 5.75,36.28 l 7.91,33.04" /><path
         id="path26"
         style="fill:#000000;fill-opacity:1;fill-rule:nonzero;stroke:none"
         d="m 408.891,1753.14 c 0,6.77 -0.5,7.02 -7.528,7.02 -16.031,-15.8 -38.84,-16.05 -49.121,-16.05 v -9.02 c 6.02,0 22.559,0 36.34,7.02 v -127.82 c 0,-8.27 0,-11.54 -25.059,-11.54 H 354 v -9.02 c 4.5,0.25 35.332,1 44.613,1 7.77,0 39.34,-0.75 44.86,-1 v 9.02 h -9.52 c -25.062,0 -25.062,3.27 -25.062,11.54 v 138.85" /><path
         id="path28"
         style="fill:#000000;fill-opacity:1;fill-rule:nonzero;stroke:none"
         d="m 257.75,1462.04 c 0,0.35 0,3.94 -4.656,3.94 -8.274,0 -34.481,-2.87 -43.832,-3.59 -2.86,-0.35 -6.809,-0.71 -6.809,-7.19 0,-4.31 3.231,-4.31 8.61,-4.31 17.25,0 17.968,-2.51 17.968,-6.09 0,-2.51 -3.23,-14.73 -5.031,-22.28 l -29.449,-117.07 c -4.309,-17.95 -5.75,-23.7 -5.75,-36.27 0,-34.13 19.051,-56.39 45.609,-56.39 42.391,0 86.563,53.51 86.563,105.23 0,32.66 -19.032,57.44 -47.77,57.44 -16.531,0 -31.25,-10.41 -42.019,-21.55 l 26.558,108.11 z M 224,1326.27 c 2.16,7.91 2.16,8.62 5.391,12.57 17.589,23.34 33.75,28.73 43.089,28.73 12.922,0 22.633,-10.78 22.633,-33.77 0,-21.19 -11.863,-62.48 -18.312,-76.14 -11.86,-24.05 -28.367,-36.98 -42.391,-36.98 -12.199,0 -24.058,9.7 -24.058,36.27 0,6.84 0,13.66 5.75,36.28 l 7.91,33.04" /><path
         id="path30"
         style="fill:#000000;fill-opacity:1;fill-rule:nonzero;stroke:none"
         d="m 451.5,1209.34 h -8.527 c -0.75,-5.5 -3.25,-20.3 -6.52,-22.8 -2,-1.52 -21.301,-1.52 -24.812,-1.52 h -46.11 c 26.313,23.32 35.082,30.34 50.129,42.11 18.551,14.8 35.84,30.33 35.84,54.14 0,30.34 -26.578,48.89 -58.656,48.89 -31.082,0 -52.121,-21.82 -52.121,-44.87 0,-12.77 10.769,-14.04 13.277,-14.04 6.023,0 13.281,4.27 13.281,13.29 0,4.5 -1.75,13.28 -14.801,13.28 7.782,17.81 24.813,23.31 36.59,23.31 25.063,0 38.114,-19.56 38.114,-39.86 0,-21.8 -15.551,-39.09 -23.563,-48.11 l -60.41,-59.64 c -2.5,-2.27 -2.5,-2.77 -2.5,-9.79 h 103.25 l 7.531,45.61" /><path
         id="path32"
         style="fill:#000000;fill-opacity:1;fill-rule:nonzero;stroke:none"
         d="m 347.871,853.766 c 0,10.418 -8.621,19.027 -19.027,19.027 -10.422,0 -19.031,-8.609 -19.031,-19.027 0,-10.411 8.609,-19.032 19.031,-19.032 10.406,0 19.027,8.629 19.027,19.032" /><path
         id="path34"
         style="fill:#000000;fill-opacity:1;fill-rule:nonzero;stroke:none"
         d="m 347.871,710.766 c 0,10.418 -8.621,19.027 -19.027,19.027 -10.422,0 -19.031,-8.609 -19.031,-19.027 0,-10.411 8.609,-19.032 19.031,-19.032 10.406,0 19.027,8.629 19.027,19.032" /><path
         id="path36"
         style="fill:#000000;fill-opacity:1;fill-rule:nonzero;stroke:none"
         d="m 347.871,566.766 c 0,10.418 -8.621,19.027 -19.027,19.027 -10.422,0 -19.031,-8.609 -19.031,-19.027 0,-10.411 8.609,-19.032 19.031,-19.032 10.406,0 19.027,8.629 19.027,19.032" /><path
         id="path38"
         style="fill:#000000;fill-opacity:1;fill-rule:nonzero;stroke:none"
         d="m 207.75,363.035 c 0,0.36 0,3.949 -4.656,3.949 -8.274,0 -34.481,-2.871 -43.832,-3.589 -2.86,-0.36 -6.809,-0.719 -6.809,-7.192 0,-4.308 3.231,-4.308 8.61,-4.308 17.25,0 17.968,-2.52 17.968,-6.09 0,-2.52 -3.23,-14.731 -5.031,-22.282 L 144.551,206.445 c -4.309,-17.949 -5.75,-23.699 -5.75,-36.269 0,-34.121 19.051,-56.391 45.609,-56.391 42.391,0 86.563,53.52 86.563,105.231 0,32.668 -19.032,57.449 -47.77,57.449 -16.531,0 -31.25,-10.41 -42.019,-21.551 l 26.558,108.109 z M 174,227.266 c 2.16,7.91 2.16,8.629 5.391,12.578 17.589,23.34 33.75,28.73 43.089,28.73 12.922,0 22.633,-10.781 22.633,-33.769 0,-21.192 -11.863,-62.481 -18.312,-76.141 -11.86,-24.059 -28.367,-36.98 -42.391,-36.98 -12.199,0 -24.058,9.691 -24.058,36.269 0,6.832 0,13.66 5.75,36.281 l 7.91,33.032" /><path
         id="path40"
         style="fill:#000000;fill-opacity:1;fill-rule:nonzero;stroke:none"
         d="m 323.301,83.2852 c -2.02,-8.5196 -2.52,-10.5313 -22.059,-10.5313 -4.519,0 -7.519,0 -7.519,-5.5 0,-3.5195 3,-3.5195 7.519,-3.5195 h 89.481 c 55.64,0 109.019,51.1286 109.019,105.7696 0,36.59 -25.308,65.422 -66.16,65.422 h -91.23 c -5.02,0 -8.032,0 -8.032,-5.52 0,-3.523 2.774,-3.523 8.282,-3.523 4,0 5.019,0 9.519,-0.5 5.02,-0.5 5.52,-1 5.52,-3.5 0,-0.5 0,-1.77 -1,-5.52 L 323.313,83.2734 Z m 56.14,134.0898 c 2,7.77 2.25,8.52 12.782,8.52 h 32.078 c 28.082,0 51.633,-14.032 51.633,-48.122 0,-5.75 -2.5,-49.109 -27.563,-77.687 -9.777,-11.2813 -31.328,-27.3321 -62.16,-27.3321 h -34.09 c -7.769,0 -8.019,0.2695 -8.019,2.5195 0,0.25 0,1.5 1,5.2696 l 34.339,136.84" /><path
         id="path42"
         style="fill:#000000;fill-opacity:1;fill-rule:nonzero;stroke:none"
         d="m 633.25,1290.64 h 24.781 v 646.09 h -119.59 v -24.78 h 94.809 v -621.31" /><path
         id="path44"
         style="fill:#000000;fill-opacity:1;fill-rule:nonzero;stroke:none"
         d="m 633.25,1075.89 h 24.7813 v 216.203 H 633.25 Z" /><path
         id="path46"
         style="fill:#000000;fill-opacity:1;fill-rule:nonzero;stroke:none"
         d="m 633.25,859.891 h 24.7813 v 216.203 H 633.25 Z" /><path
         id="path48"
         style="fill:#000000;fill-opacity:1;fill-rule:nonzero;stroke:none"
         d="m 633.25,644.891 h 24.7813 V 861.094 H 633.25 Z" /><path
         id="path50"
         style="fill:#000000;fill-opacity:1;fill-rule:nonzero;stroke:none"
         d="M 633.25,24.7852 H 538.441 V 0.00390625 h 119.59 V 646.094 H 633.25 V 24.7852" /></g></g></svg>