<?xml version="1.0" encoding="UTF-8" standalone="no"?>
<svg
   xmlns:dc="http://purl.org/dc/elements/1.1/"
   xmlns:cc="http://creativecommons.org/ns#"
   xmlns:rdf="http://www.w3.org/1999/02/22-rdf-syntax-ns#"
   xmlns:svg="http://www.w3.org/2000/svg"
   xmlns="http://www.w3.org/2000/svg"
   viewBox="0 0 357.86667 258.22668"
   height="258.22668"
   width="357.86667"
   xml:space="preserve"
   id="svg2"
   version="1.1"><metadata
     id="metadata8"><rdf:RDF><cc:Work
         rdf:about=""><dc:format>image/svg+xml</dc:format><dc:type
           rdf:resource="http://purl.org/dc/dcmitype/StillImage" /></cc:Work></rdf:RDF></metadata><defs
     id="defs6" /><g
     transform="matrix(1.3333333,0,0,-1.3333333,0,258.22667)"
     id="g10"><g
       transform="scale(0.1)"
       id="g12"><path
         id="path14"
         style="fill:#000000;fill-opacity:1;fill-rule:nonzero;stroke:none"
         d="m 0,1290.64 h 24.7813 v 621.31 h 94.8127 v 24.78 H 0 v -646.09" /><path
         id="path16"
         style="fill:#000000;fill-opacity:1;fill-rule:nonzero;stroke:none"
         d="m 0,1075.89 h 24.7813 v 216.203 H 0 Z" /><path
         id="path18"
         style="fill:#000000;fill-opacity:1;fill-rule:nonzero;stroke:none"
         d="m 0,859.891 h 24.7813 v 216.203 H 0 Z" /><path
         id="path20"
         style="fill:#000000;fill-opacity:1;fill-rule:nonzero;stroke:none"
         d="M 0,644.891 H 24.7813 V 861.094 H 0 Z" /><path
         id="path22"
         style="fill:#000000;fill-opacity:1;fill-rule:nonzero;stroke:none"
         d="M 0,0.00390625 H 119.594 V 24.7852 H 24.7813 V 646.094 H 0 V 0.00390625" /><path
         id="path24"
         style="fill:#000000;fill-opacity:1;fill-rule:nonzero;stroke:none"
         d="m 341.082,1783.13 c 0.359,2.16 1.078,3.94 1.078,6.46 0,6.11 -4.308,9.7 -10.418,9.7 -3.582,0 -13.281,-2.52 -14.719,-15.45 -6.472,13.3 -19.031,22.63 -33.41,22.63 -40.941,0 -85.472,-50.27 -85.472,-101.97 0,-35.57 21.91,-56.75 47.769,-56.75 21.192,0 38.063,16.88 41.66,20.82 l 0.364,-0.36 c -7.551,-31.96 -11.84,-46.69 -11.84,-47.41 -1.442,-3.23 -13.66,-38.78 -51.723,-38.78 -6.828,0 -18.668,0.36 -28.73,3.59 10.781,3.23 14.722,12.57 14.722,18.68 0,5.75 -3.941,12.55 -13.64,12.55 -7.91,0 -19.391,-6.45 -19.391,-20.82 0,-14.73 13.281,-21.91 47.77,-21.91 44.89,0 70.75,28.02 76.14,49.55 l 39.86,159.45 z m -46.691,-89.43 c -2.161,-9.34 -10.418,-18.31 -18.309,-25.14 -7.551,-6.47 -18.691,-12.92 -29.09,-12.92 -17.949,0 -23.34,18.67 -23.34,33.04 0,17.25 10.411,59.62 20.11,77.93 9.699,17.59 25.14,31.98 40.218,31.98 23.704,0 28.731,-29.09 28.731,-30.89 0,-1.81 -0.719,-3.95 -1.078,-5.4 l -17.231,-68.59" /><path
         id="path26"
         style="fill:#000000;fill-opacity:1;fill-rule:nonzero;stroke:none"
         d="m 426.891,1753.14 c 0,6.77 -0.5,7.02 -7.528,7.02 -16.031,-15.8 -38.84,-16.05 -49.121,-16.05 v -9.02 c 6.02,0 22.559,0 36.34,7.02 v -127.82 c 0,-8.27 0,-11.54 -25.059,-11.54 H 372 v -9.02 c 4.5,0.25 35.332,1 44.613,1 7.77,0 39.34,-0.75 44.86,-1 v 9.02 h -9.52 c -25.062,0 -25.062,3.27 -25.062,11.54 v 138.85" /><path
         id="path28"
         style="fill:#000000;fill-opacity:1;fill-rule:nonzero;stroke:none"
         d="m 569.891,1753.14 c 0,6.77 -0.5,7.02 -7.528,7.02 -16.031,-15.8 -38.84,-16.05 -49.121,-16.05 v -9.02 c 6.02,0 22.559,0 36.34,7.02 v -127.82 c 0,-8.27 0,-11.54 -25.059,-11.54 H 515 v -9.02 c 4.5,0.25 35.332,1 44.613,1 7.77,0 39.34,-0.75 44.86,-1 v 9.02 h -9.52 c -25.062,0 -25.062,3.27 -25.062,11.54 v 138.85" /><path
         id="path30"
         style="fill:#000000;fill-opacity:1;fill-rule:nonzero;stroke:none"
         d="m 1273.08,1783.13 c 0.36,2.16 1.08,3.94 1.08,6.46 0,6.11 -4.31,9.7 -10.42,9.7 -3.58,0 -13.28,-2.52 -14.72,-15.45 -6.47,13.3 -19.03,22.63 -33.41,22.63 -40.94,0 -85.47,-50.27 -85.47,-101.97 0,-35.57 21.91,-56.75 47.77,-56.75 21.19,0 38.06,16.88 41.66,20.82 l 0.36,-0.36 c -7.55,-31.96 -11.84,-46.69 -11.84,-47.41 -1.44,-3.23 -13.66,-38.78 -51.72,-38.78 -6.83,0 -18.67,0.36 -28.73,3.59 10.78,3.23 14.72,12.57 14.72,18.68 0,5.75 -3.94,12.55 -13.64,12.55 -7.91,0 -19.39,-6.45 -19.39,-20.82 0,-14.73 13.28,-21.91 47.77,-21.91 44.89,0 70.75,28.02 76.14,49.55 l 39.86,159.45 z m -46.69,-89.43 c -2.16,-9.34 -10.42,-18.31 -18.31,-25.14 -7.55,-6.47 -18.69,-12.92 -29.09,-12.92 -17.95,0 -23.34,18.67 -23.34,33.04 0,17.25 10.41,59.62 20.11,77.93 9.7,17.59 25.14,31.98 40.22,31.98 23.7,0 28.73,-29.09 28.73,-30.89 0,-1.81 -0.72,-3.95 -1.08,-5.4 l -17.23,-68.59" /><path
         id="path32"
         style="fill:#000000;fill-opacity:1;fill-rule:nonzero;stroke:none"
         d="m 1359.89,1753.14 c 0,6.77 -0.5,7.02 -7.53,7.02 -16.03,-15.8 -38.84,-16.05 -49.12,-16.05 v -9.02 c 6.02,0 22.56,0 36.34,7.02 v -127.82 c 0,-8.27 0,-11.54 -25.06,-11.54 H 1305 v -9.02 c 4.5,0.25 35.33,1 44.61,1 7.77,0 39.34,-0.75 44.86,-1 v 9.02 h -9.52 c -25.06,0 -25.06,3.27 -25.06,11.54 v 138.85" /><path
         id="path34"
         style="fill:#000000;fill-opacity:1;fill-rule:nonzero;stroke:none"
         d="m 1545.5,1639.34 h -8.53 c -0.75,-5.5 -3.25,-20.3 -6.52,-22.8 -2,-1.52 -21.3,-1.52 -24.81,-1.52 h -46.11 c 26.31,23.32 35.08,30.34 50.13,42.11 18.55,14.8 35.84,30.33 35.84,54.14 0,30.34 -26.58,48.89 -58.66,48.89 -31.08,0 -52.12,-21.82 -52.12,-44.87 0,-12.77 10.77,-14.04 13.28,-14.04 6.02,0 13.28,4.27 13.28,13.29 0,4.5 -1.75,13.28 -14.8,13.28 7.78,17.81 24.81,23.31 36.59,23.31 25.06,0 38.11,-19.56 38.11,-39.86 0,-21.8 -15.55,-39.09 -23.56,-48.11 l -60.41,-59.64 c -2.5,-2.27 -2.5,-2.77 -2.5,-9.79 h 103.25 l 7.53,45.61" /><path
         id="path36"
         style="fill:#000000;fill-opacity:1;fill-rule:nonzero;stroke:none"
         d="m 2206.08,1783.13 c 0.36,2.16 1.08,3.94 1.08,6.46 0,6.11 -4.31,9.7 -10.42,9.7 -3.58,0 -13.28,-2.52 -14.72,-15.45 -6.47,13.3 -19.03,22.63 -33.41,22.63 -40.94,0 -85.47,-50.27 -85.47,-101.97 0,-35.57 21.91,-56.75 47.77,-56.75 21.19,0 38.06,16.88 41.66,20.82 l 0.36,-0.36 c -7.55,-31.96 -11.84,-46.69 -11.84,-47.41 -1.44,-3.23 -13.66,-38.78 -51.72,-38.78 -6.83,0 -18.67,0.36 -28.73,3.59 10.78,3.23 14.72,12.57 14.72,18.68 0,5.75 -3.94,12.55 -13.64,12.55 -7.91,0 -19.39,-6.45 -19.39,-20.82 0,-14.73 13.28,-21.91 47.77,-21.91 44.89,0 70.75,28.02 76.14,49.55 l 39.86,159.45 z m -46.69,-89.43 c -2.16,-9.34 -10.42,-18.31 -18.31,-25.14 -7.55,-6.47 -18.69,-12.92 -29.09,-12.92 -17.95,0 -23.34,18.67 -23.34,33.04 0,17.25 10.41,59.62 20.11,77.93 9.7,17.59 25.14,31.98 40.22,31.98 23.7,0 28.73,-29.09 28.73,-30.89 0,-1.81 -0.72,-3.95 -1.08,-5.4 l -17.23,-68.59" /><path
         id="path38"
         style="fill:#000000;fill-opacity:1;fill-rule:nonzero;stroke:none"
         d="m 2291.89,1753.14 c 0,6.77 -0.5,7.02 -7.53,7.02 -16.03,-15.8 -38.84,-16.05 -49.12,-16.05 v -9.02 c 6.02,0 22.56,0 36.34,7.02 v -127.82 c 0,-8.27 0,-11.54 -25.06,-11.54 H 2237 v -9.02 c 4.5,0.25 35.33,1 44.61,1 7.77,0 39.34,-0.75 44.86,-1 v 9.02 h -9.52 c -25.06,0 -25.06,3.27 -25.06,11.54 v 138.85" /><path
         id="path40"
         style="fill:#000000;fill-opacity:1;fill-rule:nonzero;stroke:none"
         d="m 2419.34,1677.45 c 19.55,0 33.59,-13.54 33.59,-40.36 0,-31.07 -18.05,-40.36 -32.59,-40.36 -10.02,0 -32.08,2.77 -42.61,17.56 11.78,0.5 14.55,8.77 14.55,14.05 0,8.02 -6.02,13.77 -13.8,13.77 -7.02,0 -14.03,-4.27 -14.03,-14.55 0,-23.54 26.06,-38.84 56.39,-38.84 34.84,0 58.91,23.32 58.91,48.39 0,19.55 -16.05,39.09 -43.61,44.85 26.31,9.54 35.84,28.33 35.84,43.61 0,19.81 -22.81,34.59 -50.64,34.59 -27.81,0 -49.12,-13.53 -49.12,-33.57 0,-8.54 5.52,-13.3 13.05,-13.3 7.77,0 12.78,5.76 12.78,12.77 0,7.28 -5.02,12.53 -12.78,13.05 8.77,11.02 26.06,13.78 35.33,13.78 11.28,0 27.08,-5.51 27.08,-27.33 0,-10.52 -3.52,-22.04 -10.03,-29.81 -8.27,-9.53 -15.28,-10.03 -27.81,-10.78 -6.27,-0.5 -6.78,-0.5 -8.03,-0.75 -0.5,0 -2.5,-0.5 -2.5,-3.27 0,-3.5 2.25,-3.5 6.52,-3.5 h 13.53" /><path
         id="path42"
         style="fill:#000000;fill-opacity:1;fill-rule:nonzero;stroke:none"
         d="m 341.082,1352.13 c 0.359,2.16 1.078,3.94 1.078,6.46 0,6.11 -4.308,9.7 -10.418,9.7 -3.582,0 -13.281,-2.52 -14.719,-15.45 -6.472,13.3 -19.031,22.63 -33.41,22.63 -40.941,0 -85.472,-50.27 -85.472,-101.97 0,-35.57 21.91,-56.75 47.769,-56.75 21.192,0 38.063,16.88 41.66,20.82 l 0.364,-0.36 c -7.551,-31.96 -11.84,-46.69 -11.84,-47.41 -1.442,-3.23 -13.66,-38.78 -51.723,-38.78 -6.828,0 -18.668,0.36 -28.73,3.59 10.781,3.23 14.722,12.57 14.722,18.68 0,5.75 -3.941,12.55 -13.64,12.55 -7.91,0 -19.391,-6.45 -19.391,-20.82 0,-14.73 13.281,-21.91 47.77,-21.91 44.89,0 70.75,28.02 76.14,49.55 l 39.86,159.45 z m -46.691,-89.43 c -2.161,-9.34 -10.418,-18.31 -18.309,-25.14 -7.551,-6.47 -18.691,-12.92 -29.09,-12.92 -17.949,0 -23.34,18.67 -23.34,33.04 0,17.25 10.411,59.62 20.11,77.93 9.699,17.59 25.14,31.98 40.218,31.98 23.704,0 28.731,-29.09 28.731,-30.89 0,-1.81 -0.719,-3.95 -1.078,-5.4 l -17.231,-68.59" /><path
         id="path44"
         style="fill:#000000;fill-opacity:1;fill-rule:nonzero;stroke:none"
         d="m 469.5,1209.34 h -8.527 c -0.75,-5.5 -3.25,-20.3 -6.52,-22.8 -2,-1.52 -21.301,-1.52 -24.812,-1.52 h -46.11 c 26.313,23.32 35.082,30.34 50.129,42.11 18.551,14.8 35.84,30.33 35.84,54.14 0,30.34 -26.578,48.89 -58.656,48.89 -31.082,0 -52.121,-21.82 -52.121,-44.87 0,-12.77 10.769,-14.04 13.277,-14.04 6.023,0 13.281,4.27 13.281,13.29 0,4.5 -1.75,13.28 -14.801,13.28 7.782,17.81 24.813,23.31 36.59,23.31 25.063,0 38.114,-19.56 38.114,-39.86 0,-21.8 -15.551,-39.09 -23.563,-48.11 l -60.41,-59.64 c -2.5,-2.27 -2.5,-2.77 -2.5,-9.79 h 103.25 l 7.531,45.61" /><path
         id="path46"
         style="fill:#000000;fill-opacity:1;fill-rule:nonzero;stroke:none"
         d="m 569.891,1323.14 c 0,6.77 -0.5,7.02 -7.528,7.02 -16.031,-15.8 -38.84,-16.05 -49.121,-16.05 v -9.02 c 6.02,0 22.559,0 36.34,7.02 v -127.82 c 0,-8.27 0,-11.54 -25.059,-11.54 H 515 v -9.02 c 4.5,0.25 35.332,1 44.613,1 7.77,0 39.34,-0.75 44.86,-1 v 9.02 h -9.52 c -25.062,0 -25.062,3.27 -25.062,11.54 v 138.85" /><path
         id="path48"
         style="fill:#000000;fill-opacity:1;fill-rule:nonzero;stroke:none"
         d="m 1273.08,1352.13 c 0.36,2.16 1.08,3.94 1.08,6.46 0,6.11 -4.31,9.7 -10.42,9.7 -3.58,0 -13.28,-2.52 -14.72,-15.45 -6.47,13.3 -19.03,22.63 -33.41,22.63 -40.94,0 -85.47,-50.27 -85.47,-101.97 0,-35.57 21.91,-56.75 47.77,-56.75 21.19,0 38.06,16.88 41.66,20.82 l 0.36,-0.36 c -7.55,-31.96 -11.84,-46.69 -11.84,-47.41 -1.44,-3.23 -13.66,-38.78 -51.72,-38.78 -6.83,0 -18.67,0.36 -28.73,3.59 10.78,3.23 14.72,12.57 14.72,18.68 0,5.75 -3.94,12.55 -13.64,12.55 -7.91,0 -19.39,-6.45 -19.39,-20.82 0,-14.73 13.28,-21.91 47.77,-21.91 44.89,0 70.75,28.02 76.14,49.55 l 39.86,159.45 z m -46.69,-89.43 c -2.16,-9.34 -10.42,-18.31 -18.31,-25.14 -7.55,-6.47 -18.69,-12.92 -29.09,-12.92 -17.95,0 -23.34,18.67 -23.34,33.04 0,17.25 10.41,59.62 20.11,77.93 9.7,17.59 25.14,31.98 40.22,31.98 23.7,0 28.73,-29.09 28.73,-30.89 0,-1.81 -0.72,-3.95 -1.08,-5.4 l -17.23,-68.59" /><path
         id="path50"
         style="fill:#000000;fill-opacity:1;fill-rule:nonzero;stroke:none"
         d="m 1402.5,1209.34 h -8.53 c -0.75,-5.5 -3.25,-20.3 -6.52,-22.8 -2,-1.52 -21.3,-1.52 -24.81,-1.52 h -46.11 c 26.31,23.32 35.08,30.34 50.13,42.11 18.55,14.8 35.84,30.33 35.84,54.14 0,30.34 -26.58,48.89 -58.66,48.89 -31.08,0 -52.12,-21.82 -52.12,-44.87 0,-12.77 10.77,-14.04 13.28,-14.04 6.02,0 13.28,4.27 13.28,13.29 0,4.5 -1.75,13.28 -14.8,13.28 7.78,17.81 24.81,23.31 36.59,23.31 25.06,0 38.11,-19.56 38.11,-39.86 0,-21.8 -15.55,-39.09 -23.56,-48.11 l -60.41,-59.64 c -2.5,-2.27 -2.5,-2.77 -2.5,-9.79 h 103.25 l 7.53,45.61" /><path
         id="path52"
         style="fill:#000000;fill-opacity:1;fill-rule:nonzero;stroke:none"
         d="m 1545.5,1209.34 h -8.53 c -0.75,-5.5 -3.25,-20.3 -6.52,-22.8 -2,-1.52 -21.3,-1.52 -24.81,-1.52 h -46.11 c 26.31,23.32 35.08,30.34 50.13,42.11 18.55,14.8 35.84,30.33 35.84,54.14 0,30.34 -26.58,48.89 -58.66,48.89 -31.08,0 -52.12,-21.82 -52.12,-44.87 0,-12.77 10.77,-14.04 13.28,-14.04 6.02,0 13.28,4.27 13.28,13.29 0,4.5 -1.75,13.28 -14.8,13.28 7.78,17.81 24.81,23.31 36.59,23.31 25.06,0 38.11,-19.56 38.11,-39.86 0,-21.8 -15.55,-39.09 -23.56,-48.11 l -60.41,-59.64 c -2.5,-2.27 -2.5,-2.77 -2.5,-9.79 h 103.25 l 7.53,45.61" /><path
         id="path54"
         style="fill:#000000;fill-opacity:1;fill-rule:nonzero;stroke:none"
         d="m 2206.08,1352.13 c 0.36,2.16 1.08,3.94 1.08,6.46 0,6.11 -4.31,9.7 -10.42,9.7 -3.58,0 -13.28,-2.52 -14.72,-15.45 -6.47,13.3 -19.03,22.63 -33.41,22.63 -40.94,0 -85.47,-50.27 -85.47,-101.97 0,-35.57 21.91,-56.75 47.77,-56.75 21.19,0 38.06,16.88 41.66,20.82 l 0.36,-0.36 c -7.55,-31.96 -11.84,-46.69 -11.84,-47.41 -1.44,-3.23 -13.66,-38.78 -51.72,-38.78 -6.83,0 -18.67,0.36 -28.73,3.59 10.78,3.23 14.72,12.57 14.72,18.68 0,5.75 -3.94,12.55 -13.64,12.55 -7.91,0 -19.39,-6.45 -19.39,-20.82 0,-14.73 13.28,-21.91 47.77,-21.91 44.89,0 70.75,28.02 76.14,49.55 l 39.86,159.45 z m -46.69,-89.43 c -2.16,-9.34 -10.42,-18.31 -18.31,-25.14 -7.55,-6.47 -18.69,-12.92 -29.09,-12.92 -17.95,0 -23.34,18.67 -23.34,33.04 0,17.25 10.41,59.62 20.11,77.93 9.7,17.59 25.14,31.98 40.22,31.98 23.7,0 28.73,-29.09 28.73,-30.89 0,-1.81 -0.72,-3.95 -1.08,-5.4 l -17.23,-68.59" /><path
         id="path56"
         style="fill:#000000;fill-opacity:1;fill-rule:nonzero;stroke:none"
         d="m 2334.5,1209.34 h -8.53 c -0.75,-5.5 -3.25,-20.3 -6.52,-22.8 -2,-1.52 -21.3,-1.52 -24.81,-1.52 h -46.11 c 26.31,23.32 35.08,30.34 50.13,42.11 18.55,14.8 35.84,30.33 35.84,54.14 0,30.34 -26.58,48.89 -58.66,48.89 -31.08,0 -52.12,-21.82 -52.12,-44.87 0,-12.77 10.77,-14.04 13.28,-14.04 6.02,0 13.28,4.27 13.28,13.29 0,4.5 -1.75,13.28 -14.8,13.28 7.78,17.81 24.81,23.31 36.59,23.31 25.06,0 38.11,-19.56 38.11,-39.86 0,-21.8 -15.55,-39.09 -23.56,-48.11 l -60.41,-59.64 c -2.5,-2.27 -2.5,-2.77 -2.5,-9.79 h 103.25 l 7.53,45.61" /><path
         id="path58"
         style="fill:#000000;fill-opacity:1;fill-rule:nonzero;stroke:none"
         d="m 2419.34,1247.45 c 19.55,0 33.59,-13.54 33.59,-40.36 0,-31.07 -18.05,-40.36 -32.59,-40.36 -10.02,0 -32.08,2.77 -42.61,17.56 11.78,0.5 14.55,8.77 14.55,14.05 0,8.02 -6.02,13.77 -13.8,13.77 -7.02,0 -14.03,-4.27 -14.03,-14.55 0,-23.54 26.06,-38.84 56.39,-38.84 34.84,0 58.91,23.32 58.91,48.39 0,19.55 -16.05,39.09 -43.61,44.85 26.31,9.54 35.84,28.33 35.84,43.61 0,19.81 -22.81,34.59 -50.64,34.59 -27.81,0 -49.12,-13.53 -49.12,-33.57 0,-8.54 5.52,-13.3 13.05,-13.3 7.77,0 12.78,5.76 12.78,12.77 0,7.28 -5.02,12.53 -12.78,13.05 8.77,11.02 26.06,13.78 35.33,13.78 11.28,0 27.08,-5.51 27.08,-27.33 0,-10.52 -3.52,-22.04 -10.03,-29.81 -8.27,-9.53 -15.28,-10.03 -27.81,-10.78 -6.27,-0.5 -6.78,-0.5 -8.03,-0.75 -0.5,0 -2.5,-0.5 -2.5,-3.27 0,-3.5 2.25,-3.5 6.52,-3.5 h 13.53" /><path
         id="path60"
         style="fill:#000000;fill-opacity:1;fill-rule:nonzero;stroke:none"
         d="m 427.871,853.766 c 0,10.418 -8.621,19.027 -19.027,19.027 -10.422,0 -19.031,-8.609 -19.031,-19.027 0,-10.411 8.609,-19.032 19.031,-19.032 10.406,0 19.027,8.629 19.027,19.032" /><path
         id="path62"
         style="fill:#000000;fill-opacity:1;fill-rule:nonzero;stroke:none"
         d="m 427.871,710.766 c 0,10.418 -8.621,19.027 -19.027,19.027 -10.422,0 -19.031,-8.609 -19.031,-19.027 0,-10.411 8.609,-19.032 19.031,-19.032 10.406,0 19.027,8.629 19.027,19.032" /><path
         id="path64"
         style="fill:#000000;fill-opacity:1;fill-rule:nonzero;stroke:none"
         d="m 427.871,566.766 c 0,10.418 -8.621,19.027 -19.027,19.027 -10.422,0 -19.031,-8.609 -19.031,-19.027 0,-10.411 8.609,-19.032 19.031,-19.032 10.406,0 19.027,8.629 19.027,19.032" /><path
         id="path66"
         style="fill:#000000;fill-opacity:1;fill-rule:nonzero;stroke:none"
         d="m 1360.87,853.766 c 0,10.418 -8.62,19.027 -19.03,19.027 -10.42,0 -19.03,-8.609 -19.03,-19.027 0,-10.411 8.61,-19.032 19.03,-19.032 10.41,0 19.03,8.629 19.03,19.032" /><path
         id="path68"
         style="fill:#000000;fill-opacity:1;fill-rule:nonzero;stroke:none"
         d="m 1360.87,710.766 c 0,10.418 -8.62,19.027 -19.03,19.027 -10.42,0 -19.03,-8.609 -19.03,-19.027 0,-10.411 8.61,-19.032 19.03,-19.032 10.41,0 19.03,8.629 19.03,19.032" /><path
         id="path70"
         style="fill:#000000;fill-opacity:1;fill-rule:nonzero;stroke:none"
         d="m 1360.87,566.766 c 0,10.418 -8.62,19.027 -19.03,19.027 -10.42,0 -19.03,-8.609 -19.03,-19.027 0,-10.411 8.61,-19.032 19.03,-19.032 10.41,0 19.03,8.629 19.03,19.032" /><path
         id="path72"
         style="fill:#000000;fill-opacity:1;fill-rule:nonzero;stroke:none"
         d="m 2293.87,853.766 c 0,10.418 -8.62,19.027 -19.03,19.027 -10.42,0 -19.03,-8.609 -19.03,-19.027 0,-10.411 8.61,-19.032 19.03,-19.032 10.41,0 19.03,8.629 19.03,19.032" /><path
         id="path74"
         style="fill:#000000;fill-opacity:1;fill-rule:nonzero;stroke:none"
         d="m 2293.87,710.766 c 0,10.418 -8.62,19.027 -19.03,19.027 -10.42,0 -19.03,-8.609 -19.03,-19.027 0,-10.411 8.61,-19.032 19.03,-19.032 10.41,0 19.03,8.629 19.03,19.032" /><path
         id="path76"
         style="fill:#000000;fill-opacity:1;fill-rule:nonzero;stroke:none"
         d="m 2293.87,566.766 c 0,10.418 -8.62,19.027 -19.03,19.027 -10.42,0 -19.03,-8.609 -19.03,-19.027 0,-10.411 8.61,-19.032 19.03,-19.032 10.41,0 19.03,8.629 19.03,19.032" /><path
         id="path78"
         style="fill:#000000;fill-opacity:1;fill-rule:nonzero;stroke:none"
         d="m 291.082,253.125 c 0.359,2.16 1.078,3.949 1.078,6.469 0,6.109 -4.308,9.699 -10.418,9.699 -3.582,0 -13.281,-2.52 -14.719,-15.449 -6.472,13.301 -19.031,22.629 -33.41,22.629 -40.941,0 -85.472,-50.278 -85.472,-101.977 0,-35.562 21.91,-56.75 47.769,-56.75 21.192,0 38.063,16.879 41.66,20.828 l 0.364,-0.359 c -7.551,-31.969 -11.84,-46.6916 -11.84,-47.4103 -1.442,-3.2305 -13.66,-38.7813 -51.723,-38.7813 -6.828,0 -18.668,0.3594 -28.73,3.5899 10.781,3.2226 14.722,12.5625 14.722,18.6719 0,5.75 -3.941,12.5586 -13.64,12.5586 -7.91,0 -19.391,-6.4493 -19.391,-20.8282 0,-14.7226 13.281,-21.9101 47.77,-21.9101 44.89,0 70.75,28.0195 76.14,49.5586 l 39.86,159.4489 z m -46.691,-89.422 c -2.161,-9.34 -10.418,-18.308 -18.309,-25.14 -7.551,-6.469 -18.691,-12.918 -29.09,-12.918 -17.949,0 -23.34,18.668 -23.34,33.031 0,17.25 10.411,59.629 20.11,77.937 9.699,17.59 25.14,31.973 40.218,31.973 23.704,0 28.731,-29.09 28.731,-30.891 0,-1.8 -0.719,-3.949 -1.078,-5.39 l -17.231,-68.59" /><path
         id="path80"
         style="fill:#000000;fill-opacity:1;fill-rule:nonzero;stroke:none"
         d="m 340.301,83.2852 c -2.02,-8.5196 -2.52,-10.5313 -22.059,-10.5313 -4.519,0 -7.519,0 -7.519,-5.5 0,-3.5195 3,-3.5195 7.519,-3.5195 h 89.481 c 55.64,0 109.019,51.1286 109.019,105.7696 0,36.59 -25.308,65.422 -66.16,65.422 h -91.23 c -5.02,0 -8.032,0 -8.032,-5.52 0,-3.523 2.774,-3.523 8.282,-3.523 4,0 5.019,0 9.519,-0.5 5.02,-0.5 5.52,-1 5.52,-3.5 0,-0.5 0,-1.77 -1,-5.52 L 340.313,83.2734 Z m 56.14,134.0898 c 2,7.77 2.25,8.52 12.782,8.52 h 32.078 c 28.082,0 51.633,-14.032 51.633,-48.122 0,-5.75 -2.5,-49.109 -27.563,-77.687 -9.777,-11.2813 -31.328,-27.3321 -62.16,-27.3321 h -34.09 c -7.769,0 -8.019,0.2695 -8.019,2.5195 0,0.25 0,1.5 1,5.2696 l 34.339,136.84" /><path
         id="path82"
         style="fill:#000000;fill-opacity:1;fill-rule:nonzero;stroke:none"
         d="m 618.891,223.145 c 0,6.769 -0.5,7.019 -7.528,7.019 -16.031,-15.801 -38.84,-16.051 -49.121,-16.051 v -9.019 c 6.02,0 22.559,0 36.34,7.019 V 84.2852 c 0,-8.2696 0,-11.5313 -25.059,-11.5313 H 564 v -9.0195 c 4.5,0.25 35.332,1 44.613,1 7.77,0 39.34,-0.75 44.86,-1 v 9.0195 h -9.52 c -25.062,0 -25.062,3.2695 -25.062,11.5313 V 223.145" /><path
         id="path84"
         style="fill:#000000;fill-opacity:1;fill-rule:nonzero;stroke:none"
         d="m 1224.08,253.125 c 0.36,2.16 1.08,3.949 1.08,6.469 0,6.109 -4.31,9.699 -10.42,9.699 -3.58,0 -13.28,-2.52 -14.72,-15.449 -6.47,13.301 -19.03,22.629 -33.41,22.629 -40.94,0 -85.47,-50.278 -85.47,-101.977 0,-35.562 21.91,-56.75 47.77,-56.75 21.19,0 38.06,16.879 41.66,20.828 l 0.36,-0.359 c -7.55,-31.969 -11.84,-46.6916 -11.84,-47.4103 -1.44,-3.2305 -13.66,-38.7813 -51.72,-38.7813 -6.83,0 -18.67,0.3594 -28.73,3.5899 10.78,3.2226 14.72,12.5625 14.72,18.6719 0,5.75 -3.94,12.5586 -13.64,12.5586 -7.91,0 -19.39,-6.4493 -19.39,-20.8282 0,-14.7226 13.28,-21.9101 47.77,-21.9101 44.89,0 70.75,28.0195 76.14,49.5586 l 39.86,159.4489 z m -46.69,-89.422 c -2.16,-9.34 -10.42,-18.308 -18.31,-25.14 -7.55,-6.469 -18.69,-12.918 -29.09,-12.918 -17.95,0 -23.34,18.668 -23.34,33.031 0,17.25 10.41,59.629 20.11,77.937 9.7,17.59 25.14,31.973 40.22,31.973 23.7,0 28.73,-29.09 28.73,-30.891 0,-1.8 -0.72,-3.949 -1.08,-5.39 l -17.23,-68.59" /><path
         id="path86"
         style="fill:#000000;fill-opacity:1;fill-rule:nonzero;stroke:none"
         d="m 1273.3,83.2852 c -2.02,-8.5196 -2.52,-10.5313 -22.06,-10.5313 -4.52,0 -7.52,0 -7.52,-5.5 0,-3.5195 3,-3.5195 7.52,-3.5195 h 89.48 c 55.64,0 109.02,51.1286 109.02,105.7696 0,36.59 -25.31,65.422 -66.16,65.422 h -91.23 c -5.02,0 -8.03,0 -8.03,-5.52 0,-3.523 2.77,-3.523 8.28,-3.523 4,0 5.02,0 9.52,-0.5 5.02,-0.5 5.52,-1 5.52,-3.5 0,-0.5 0,-1.77 -1,-5.52 L 1273.31,83.2734 Z m 56.14,134.0898 c 2,7.77 2.25,8.52 12.78,8.52 h 32.08 c 28.08,0 51.63,-14.032 51.63,-48.122 0,-5.75 -2.5,-49.109 -27.56,-77.687 -9.78,-11.2813 -31.33,-27.3321 -62.16,-27.3321 h -34.09 c -7.77,0 -8.02,0.2695 -8.02,2.5195 0,0.25 0,1.5 1,5.2696 l 34.34,136.84" /><path
         id="path88"
         style="fill:#000000;fill-opacity:1;fill-rule:nonzero;stroke:none"
         d="m 1594.5,109.344 h -8.53 c -0.75,-5.5 -3.25,-20.301 -6.52,-22.801 -2,-1.5196 -21.3,-1.5196 -24.81,-1.5196 h -46.11 c 26.31,23.3126 35.08,30.3316 50.13,42.1096 18.55,14.801 35.84,30.332 35.84,54.14 0,30.332 -26.58,48.883 -58.66,48.883 -31.08,0 -52.12,-21.812 -52.12,-44.863 0,-12.777 10.77,-14.047 13.28,-14.047 6.02,0 13.28,4.27 13.28,13.297 0,4.5 -1.75,13.281 -14.8,13.281 7.78,17.801 24.81,23.309 36.59,23.309 25.06,0 38.11,-19.559 38.11,-39.86 0,-21.8 -15.55,-39.089 -23.56,-48.117 l -60.41,-59.6404 c -2.5,-2.2695 -2.5,-2.7695 -2.5,-9.7812 h 103.25 l 7.53,45.6096" /><path
         id="path90"
         style="fill:#000000;fill-opacity:1;fill-rule:nonzero;stroke:none"
         d="m 2157.08,253.125 c 0.36,2.16 1.08,3.949 1.08,6.469 0,6.109 -4.31,9.699 -10.42,9.699 -3.58,0 -13.28,-2.52 -14.72,-15.449 -6.47,13.301 -19.03,22.629 -33.41,22.629 -40.94,0 -85.47,-50.278 -85.47,-101.977 0,-35.562 21.91,-56.75 47.77,-56.75 21.19,0 38.06,16.879 41.66,20.828 l 0.36,-0.359 c -7.55,-31.969 -11.84,-46.6916 -11.84,-47.4103 -1.44,-3.2305 -13.66,-38.7813 -51.72,-38.7813 -6.83,0 -18.67,0.3594 -28.73,3.5899 10.78,3.2226 14.72,12.5625 14.72,18.6719 0,5.75 -3.94,12.5586 -13.64,12.5586 -7.91,0 -19.39,-6.4493 -19.39,-20.8282 0,-14.7226 13.28,-21.9101 47.77,-21.9101 44.89,0 70.75,28.0195 76.14,49.5586 l 39.86,159.4489 z m -46.69,-89.422 c -2.16,-9.34 -10.42,-18.308 -18.31,-25.14 -7.55,-6.469 -18.69,-12.918 -29.09,-12.918 -17.95,0 -23.34,18.668 -23.34,33.031 0,17.25 10.41,59.629 20.11,77.937 9.7,17.59 25.14,31.973 40.22,31.973 23.7,0 28.73,-29.09 28.73,-30.891 0,-1.8 -0.72,-3.949 -1.08,-5.39 l -17.23,-68.59" /><path
         id="path92"
         style="fill:#000000;fill-opacity:1;fill-rule:nonzero;stroke:none"
         d="m 2206.3,83.2852 c -2.02,-8.5196 -2.52,-10.5313 -22.06,-10.5313 -4.52,0 -7.52,0 -7.52,-5.5 0,-3.5195 3,-3.5195 7.52,-3.5195 h 89.48 c 55.64,0 109.02,51.1286 109.02,105.7696 0,36.59 -25.31,65.422 -66.16,65.422 h -91.23 c -5.02,0 -8.03,0 -8.03,-5.52 0,-3.523 2.77,-3.523 8.28,-3.523 4,0 5.02,0 9.52,-0.5 5.02,-0.5 5.52,-1 5.52,-3.5 0,-0.5 0,-1.77 -1,-5.52 L 2206.31,83.2734 Z m 56.14,134.0898 c 2,7.77 2.25,8.52 12.78,8.52 h 32.08 c 28.08,0 51.63,-14.032 51.63,-48.122 0,-5.75 -2.5,-49.109 -27.56,-77.687 -9.78,-11.2813 -31.33,-27.3321 -62.16,-27.3321 h -34.09 c -7.77,0 -8.02,0.2695 -8.02,2.5195 0,0.25 0,1.5 1,5.2696 l 34.34,136.84" /><path
         id="path94"
         style="fill:#000000;fill-opacity:1;fill-rule:nonzero;stroke:none"
         d="m 2469.34,147.453 c 19.55,0 33.59,-13.547 33.59,-40.359 0,-31.0784 -18.05,-40.3596 -32.59,-40.3596 -10.02,0 -32.08,2.7695 -42.61,17.5508 11.78,0.5 14.55,8.7773 14.55,14.0507 0,8.0191 -6.02,13.7771 -13.8,13.7771 -7.02,0 -14.03,-4.269 -14.03,-14.5505 0,-23.5469 26.06,-38.8398 56.39,-38.8398 34.84,0 58.91,23.3125 58.91,48.3823 0,19.551 -16.05,39.09 -43.61,44.86 26.31,9.531 35.84,28.328 35.84,43.609 0,19.809 -22.81,34.59 -50.64,34.59 -27.81,0 -49.12,-13.531 -49.12,-33.578 0,-8.531 5.52,-13.301 13.05,-13.301 7.77,0 12.78,5.77 12.78,12.778 0,7.281 -5.02,12.531 -12.78,13.05 8.77,11.02 26.06,13.782 35.33,13.782 11.28,0 27.08,-5.52 27.08,-27.332 0,-10.52 -3.52,-22.047 -10.03,-29.809 -8.27,-9.531 -15.28,-10.031 -27.81,-10.781 -6.27,-0.5 -6.78,-0.5 -8.03,-0.75 -0.5,0 -2.5,-0.5 -2.5,-3.27 0,-3.5 2.25,-3.5 6.52,-3.5 h 13.53" /><path
         id="path96"
         style="fill:#000000;fill-opacity:1;fill-rule:nonzero;stroke:none"
         d="m 2659.25,1290.64 h 24.78 v 646.09 h -119.59 v -24.78 h 94.81 v -621.31" /><path
         id="path98"
         style="fill:#000000;fill-opacity:1;fill-rule:nonzero;stroke:none"
         d="m 2659.25,1075.89 h 24.7813 v 216.203 H 2659.25 Z" /><path
         id="path100"
         style="fill:#000000;fill-opacity:1;fill-rule:nonzero;stroke:none"
         d="m 2659.25,859.891 h 24.7813 v 216.203 H 2659.25 Z" /><path
         id="path102"
         style="fill:#000000;fill-opacity:1;fill-rule:nonzero;stroke:none"
         d="m 2659.25,644.891 h 24.7813 V 861.094 H 2659.25 Z" /><path
         id="path104"
         style="fill:#000000;fill-opacity:1;fill-rule:nonzero;stroke:none"
         d="m 2659.25,24.7852 h -94.81 V 0.00390625 h 119.59 V 646.094 h -24.78 V 24.7852" /></g></g></svg>