<?xml version="1.0" encoding="UTF-8" standalone="no"?>
<svg
   xmlns:dc="http://purl.org/dc/elements/1.1/"
   xmlns:cc="http://creativecommons.org/ns#"
   xmlns:rdf="http://www.w3.org/1999/02/22-rdf-syntax-ns#"
   xmlns:svg="http://www.w3.org/2000/svg"
   xmlns="http://www.w3.org/2000/svg"
   viewBox="0 0 638.37335 268.53333"
   height="268.53333"
   width="638.37335"
   xml:space="preserve"
   id="svg2"
   version="1.1"><metadata
     id="metadata8"><rdf:RDF><cc:Work
         rdf:about=""><dc:format>image/svg+xml</dc:format><dc:type
           rdf:resource="http://purl.org/dc/dcmitype/StillImage" /></cc:Work></rdf:RDF></metadata><defs
     id="defs6" /><g
     transform="matrix(1.3333333,0,0,-1.3333333,0,268.53333)"
     id="g10"><g
       transform="scale(0.1)"
       id="g12"><path
         id="path14"
         style="fill:#000000;fill-opacity:1;fill-rule:nonzero;stroke:none"
         d="m 119.953,1818.31 c 0,29.45 7.91,98.05 71.828,143.3 4.672,3.59 5.032,3.95 5.032,10.41 0,8.27 -0.36,8.63 -9.329,8.63 h -5.75 C 104.512,1938.99 76.8633,1871.12 76.8633,1818.32 v -154.44 c 0,-9.33 0.3594,-9.69 10.0586,-9.69 h 22.9801 c 9.692,0 10.051,0.36 10.051,9.69 v 154.44" /><path
         id="path16"
         style="fill:#000000;fill-opacity:1;fill-rule:nonzero;stroke:none"
         d="m 119.953,1651.89 c 0,9.34 -0.359,9.7 -10.051,9.7 H 86.9219 c -9.6992,0 -10.0586,-0.36 -10.0586,-9.7 v -95.53 c 0,-9.33 0.3594,-9.69 10.0586,-9.69 h 22.9801 c 9.692,0 10.051,0.36 10.051,9.69 v 95.53" /><path
         id="path18"
         style="fill:#000000;fill-opacity:1;fill-rule:nonzero;stroke:none"
         d="m 119.953,1543.89 c 0,9.34 -0.359,9.7 -10.051,9.7 H 86.9219 c -9.6992,0 -10.0586,-0.36 -10.0586,-9.7 v -95.53 c 0,-9.33 0.3594,-9.69 10.0586,-9.69 h 22.9801 c 9.692,0 10.051,0.36 10.051,9.69 v 95.53" /><path
         id="path20"
         style="fill:#000000;fill-opacity:1;fill-rule:nonzero;stroke:none"
         d="m 119.953,1436.89 c 0,9.34 -0.359,9.7 -10.051,9.7 H 86.9219 c -9.6992,0 -10.0586,-0.36 -10.0586,-9.7 v -95.53 c 0,-9.33 0.3594,-9.69 10.0586,-9.69 h 22.9801 c 9.692,0 10.051,0.36 10.051,9.69 v 95.53" /><path
         id="path22"
         style="fill:#000000;fill-opacity:1;fill-rule:nonzero;stroke:none"
         d="m 76.8633,694.66 c 0,-9.34 0.3594,-9.699 10.0586,-9.699 h 22.9801 c 9.692,0 10.051,0.359 10.051,9.699 v 151.551 c 0,43.469 -18.308,116.719 -98.7499,165.559 81.1599,49.2 98.7499,123.19 98.7499,165.58 v 151.55 c 0,9.34 -0.359,9.7 -10.051,9.7 H 86.9219 c -9.6992,0 -10.0586,-0.36 -10.0586,-9.7 v -151.91 c 0,-30.17 -6.4492,-104.87 -72.5508,-155.16 -3.949219,-3.23 -4.30859375,-3.59 -4.30859375,-10.06 0,-6.45 0.35937475,-6.81 4.30859375,-10.05 9.3398,-7.189 34.1289,-26.22 51.3594,-62.501 14.0195,-28.719 21.1914,-60.688 21.1914,-92.66 V 694.648" /><path
         id="path24"
         style="fill:#000000;fill-opacity:1;fill-rule:nonzero;stroke:none"
         d="m 119.953,683.891 c 0,9.339 -0.359,9.699 -10.051,9.699 H 86.9219 c -9.6992,0 -10.0586,-0.36 -10.0586,-9.699 v -95.532 c 0,-9.328 0.3594,-9.687 10.0586,-9.687 h 22.9801 c 9.692,0 10.051,0.359 10.051,9.687 v 95.532" /><path
         id="path26"
         style="fill:#000000;fill-opacity:1;fill-rule:nonzero;stroke:none"
         d="m 119.953,575.891 c 0,9.339 -0.359,9.699 -10.051,9.699 H 86.9219 c -9.6992,0 -10.0586,-0.36 -10.0586,-9.699 v -95.532 c 0,-9.328 0.3594,-9.687 10.0586,-9.687 h 22.9801 c 9.692,0 10.051,0.359 10.051,9.687 v 95.532" /><path
         id="path28"
         style="fill:#000000;fill-opacity:1;fill-rule:nonzero;stroke:none"
         d="m 119.953,468.891 c 0,9.339 -0.359,9.699 -10.051,9.699 H 86.9219 c -9.6992,0 -10.0586,-0.36 -10.0586,-9.699 v -95.532 c 0,-9.328 0.3594,-9.687 10.0586,-9.687 h 22.9801 c 9.692,0 10.051,0.359 10.051,9.687 v 95.532" /><path
         id="path30"
         style="fill:#000000;fill-opacity:1;fill-rule:nonzero;stroke:none"
         d="m 187.484,44.1289 c 8.969,0 9.329,0.3594 9.329,8.6328 0,6.4688 -0.36,6.8281 -1.801,7.9102 -11.117,8.25 -36.981,26.5781 -53.86,59.6091 -14.019,27.297 -21.199,54.949 -21.199,86.199 v 154.418 c 0,9.34 -0.359,9.704 -10.051,9.704 H 86.9219 c -9.6992,0 -10.0586,-0.364 -10.0586,-9.704 V 206.48 c 0,-53.16 27.6597,-121.0308 104.8787,-162.3394 h 5.75" /><path
         id="path32"
         style="fill:#000000;fill-opacity:1;fill-rule:nonzero;stroke:none"
         d="m 375.031,1367.91 h 24.782 v 621.31 h 94.812 V 2014 H 375.031 v -646.09" /><path
         id="path34"
         style="fill:#000000;fill-opacity:1;fill-rule:nonzero;stroke:none"
         d="m 375.031,1153.16 h 24.7813 v 216.203 H 375.031 Z" /><path
         id="path36"
         style="fill:#000000;fill-opacity:1;fill-rule:nonzero;stroke:none"
         d="m 375.031,937.156 h 24.7813 v 216.203 H 375.031 Z" /><path
         id="path38"
         style="fill:#000000;fill-opacity:1;fill-rule:nonzero;stroke:none"
         d="m 375.031,722.156 h 24.7813 V 938.359 H 375.031 Z" /><path
         id="path40"
         style="fill:#000000;fill-opacity:1;fill-rule:nonzero;stroke:none"
         d="M 375.031,77.2695 H 494.625 V 102.051 H 399.813 V 723.359 H 375.031 V 77.2695" /><path
         id="path42"
         style="fill:#000000;fill-opacity:1;fill-rule:nonzero;stroke:none"
         d="m 716.113,1860.39 c 0.36,2.16 1.078,3.95 1.078,6.47 0,6.11 -4.308,9.7 -10.418,9.7 -3.582,0 -13.281,-2.52 -14.718,-15.45 -6.473,13.3 -19.032,22.63 -33.41,22.63 -40.942,0 -85.473,-50.28 -85.473,-101.98 0,-35.56 21.91,-56.75 47.769,-56.75 21.192,0 38.063,16.88 41.661,20.83 l 0.363,-0.36 c -7.551,-31.97 -11.84,-46.69 -11.84,-47.41 -1.441,-3.23 -13.66,-38.78 -51.723,-38.78 -6.828,0 -18.668,0.36 -28.73,3.59 10.781,3.22 14.723,12.56 14.723,18.67 0,5.75 -3.942,12.56 -13.641,12.56 -7.91,0 -19.391,-6.45 -19.391,-20.83 0,-14.72 13.282,-21.91 47.77,-21.91 44.89,0 70.75,28.02 76.14,49.56 l 39.86,159.45 z m -46.691,-89.42 c -2.16,-9.34 -10.418,-18.31 -18.309,-25.14 -7.55,-6.47 -18.691,-12.92 -29.09,-12.92 -17.949,0 -23.339,18.67 -23.339,33.03 0,17.25 10.41,59.63 20.109,77.94 9.699,17.59 25.141,31.97 40.219,31.97 23.703,0 28.73,-29.09 28.73,-30.89 0,-1.8 -0.719,-3.95 -1.078,-5.39 l -17.23,-68.59" /><path
         id="path44"
         style="fill:#000000;fill-opacity:1;fill-rule:nonzero;stroke:none"
         d="m 801.922,1830.41 c 0,6.77 -0.5,7.02 -7.527,7.02 -16.032,-15.8 -38.84,-16.05 -49.122,-16.05 v -9.02 c 6.02,0 22.559,0 36.34,7.02 v -127.83 c 0,-8.27 0,-11.53 -25.058,-11.53 h -9.524 V 1671 c 4.5,0.25 35.332,1 44.614,1 7.769,0 39.339,-0.75 44.859,-1 v 9.02 h -9.52 c -25.062,0 -25.062,3.27 -25.062,11.53 v 138.86" /><path
         id="path46"
         style="fill:#000000;fill-opacity:1;fill-rule:nonzero;stroke:none"
         d="m 944.922,1830.41 c 0,6.77 -0.5,7.02 -7.527,7.02 -16.032,-15.8 -38.84,-16.05 -49.122,-16.05 v -9.02 c 6.02,0 22.559,0 36.34,7.02 v -127.83 c 0,-8.27 0,-11.53 -25.058,-11.53 h -9.524 V 1671 c 4.5,0.25 35.332,1 44.614,1 7.769,0 39.339,-0.75 44.859,-1 v 9.02 h -9.52 c -25.062,0 -25.062,3.27 -25.062,11.53 v 138.86" /><path
         id="path48"
         style="fill:#000000;fill-opacity:1;fill-rule:nonzero;stroke:none"
         d="m 1648.11,1860.39 c 0.36,2.16 1.08,3.95 1.08,6.47 0,6.11 -4.31,9.7 -10.42,9.7 -3.58,0 -13.28,-2.52 -14.72,-15.45 -6.47,13.3 -19.03,22.63 -33.41,22.63 -40.94,0 -85.47,-50.28 -85.47,-101.98 0,-35.56 21.91,-56.75 47.77,-56.75 21.19,0 38.06,16.88 41.66,20.83 l 0.36,-0.36 c -7.55,-31.97 -11.83,-46.69 -11.83,-47.41 -1.45,-3.23 -13.67,-38.78 -51.73,-38.78 -6.83,0 -18.67,0.36 -28.73,3.59 10.78,3.22 14.72,12.56 14.72,18.67 0,5.75 -3.94,12.56 -13.64,12.56 -7.91,0 -19.39,-6.45 -19.39,-20.83 0,-14.72 13.28,-21.91 47.77,-21.91 44.89,0 70.75,28.02 76.14,49.56 l 39.86,159.45 z m -46.69,-89.42 c -2.16,-9.34 -10.42,-18.31 -18.31,-25.14 -7.55,-6.47 -18.69,-12.92 -29.09,-12.92 -17.95,0 -23.34,18.67 -23.34,33.03 0,17.25 10.41,59.63 20.11,77.94 9.7,17.59 25.14,31.97 40.22,31.97 23.7,0 28.73,-29.09 28.73,-30.89 0,-1.8 -0.72,-3.95 -1.08,-5.39 l -17.23,-68.59" /><path
         id="path50"
         style="fill:#000000;fill-opacity:1;fill-rule:nonzero;stroke:none"
         d="m 1734.92,1830.41 c 0,6.77 -0.5,7.02 -7.53,7.02 -16.03,-15.8 -38.84,-16.05 -49.12,-16.05 v -9.02 c 6.02,0 22.56,0 36.34,7.02 v -127.83 c 0,-8.27 0,-11.53 -25.06,-11.53 h -9.52 V 1671 c 4.5,0.25 35.33,1 44.61,1 7.77,0 39.34,-0.75 44.86,-1 v 9.02 h -9.52 c -25.06,0 -25.06,3.27 -25.06,11.53 v 138.86" /><path
         id="path52"
         style="fill:#000000;fill-opacity:1;fill-rule:nonzero;stroke:none"
         d="M 1919.53,1716.61 H 1911 c -0.75,-5.5 -3.25,-20.3 -6.52,-22.8 -2,-1.52 -21.3,-1.52 -24.81,-1.52 h -46.11 c 26.32,23.31 35.08,30.33 50.13,42.11 18.55,14.8 35.84,30.33 35.84,54.14 0,30.33 -26.58,48.88 -58.65,48.88 -31.09,0 -52.13,-21.81 -52.13,-44.86 0,-12.78 10.77,-14.05 13.28,-14.05 6.02,0 13.28,4.27 13.28,13.3 0,4.5 -1.75,13.28 -14.8,13.28 7.78,17.8 24.81,23.31 36.59,23.31 25.06,0 38.11,-19.56 38.11,-39.86 0,-21.8 -15.55,-39.09 -23.56,-48.12 l -60.41,-59.64 c -2.5,-2.27 -2.5,-2.77 -2.5,-9.78 h 103.25 l 7.53,45.61" /><path
         id="path54"
         style="fill:#000000;fill-opacity:1;fill-rule:nonzero;stroke:none"
         d="m 2581.11,1860.39 c 0.36,2.16 1.08,3.95 1.08,6.47 0,6.11 -4.31,9.7 -10.42,9.7 -3.58,0 -13.28,-2.52 -14.72,-15.45 -6.47,13.3 -19.03,22.63 -33.41,22.63 -40.94,0 -85.47,-50.28 -85.47,-101.98 0,-35.56 21.91,-56.75 47.77,-56.75 21.19,0 38.06,16.88 41.66,20.83 l 0.36,-0.36 c -7.55,-31.97 -11.84,-46.69 -11.84,-47.41 -1.44,-3.23 -13.66,-38.78 -51.72,-38.78 -6.83,0 -18.67,0.36 -28.73,3.59 10.78,3.22 14.72,12.56 14.72,18.67 0,5.75 -3.94,12.56 -13.64,12.56 -7.91,0 -19.39,-6.45 -19.39,-20.83 0,-14.72 13.28,-21.91 47.77,-21.91 44.89,0 70.75,28.02 76.14,49.56 l 39.86,159.45 z m -46.69,-89.42 c -2.16,-9.34 -10.42,-18.31 -18.31,-25.14 -7.55,-6.47 -18.69,-12.92 -29.09,-12.92 -17.95,0 -23.34,18.67 -23.34,33.03 0,17.25 10.41,59.63 20.11,77.94 9.7,17.59 25.14,31.97 40.22,31.97 23.7,0 28.73,-29.09 28.73,-30.89 0,-1.8 -0.72,-3.95 -1.08,-5.39 l -17.23,-68.59" /><path
         id="path56"
         style="fill:#000000;fill-opacity:1;fill-rule:nonzero;stroke:none"
         d="m 2666.92,1830.41 c 0,6.77 -0.5,7.02 -7.53,7.02 -16.03,-15.8 -38.84,-16.05 -49.12,-16.05 v -9.02 c 6.02,0 22.56,0 36.34,7.02 v -127.83 c 0,-8.27 0,-11.53 -25.06,-11.53 h -9.52 V 1671 c 4.5,0.25 35.33,1 44.61,1 7.77,0 39.34,-0.75 44.86,-1 v 9.02 h -9.52 c -25.06,0 -25.06,3.27 -25.06,11.53 v 138.86" /><path
         id="path58"
         style="fill:#000000;fill-opacity:1;fill-rule:nonzero;stroke:none"
         d="m 2794.38,1754.72 c 19.54,0 33.58,-13.55 33.58,-40.36 0,-31.08 -18.05,-40.36 -32.58,-40.36 -10.03,0 -32.09,2.77 -42.62,17.55 11.78,0.5 14.55,8.78 14.55,14.05 0,8.02 -6.02,13.78 -13.8,13.78 -7.02,0 -14.03,-4.27 -14.03,-14.55 0,-23.55 26.06,-38.84 56.39,-38.84 34.84,0 58.91,23.31 58.91,48.38 0,19.55 -16.05,39.09 -43.61,44.86 26.31,9.53 35.84,28.33 35.84,43.61 0,19.81 -22.81,34.59 -50.64,34.59 -27.81,0 -49.12,-13.53 -49.12,-33.58 0,-8.53 5.52,-13.3 13.05,-13.3 7.77,0 12.78,5.77 12.78,12.78 0,7.28 -5.02,12.53 -12.78,13.05 8.77,11.02 26.06,13.78 35.33,13.78 11.28,0 27.08,-5.52 27.08,-27.33 0,-10.52 -3.52,-22.05 -10.03,-29.81 -8.27,-9.53 -15.28,-10.03 -27.8,-10.78 -6.28,-0.5 -6.79,-0.5 -8.04,-0.75 -0.5,0 -2.5,-0.5 -2.5,-3.27 0,-3.5 2.25,-3.5 6.52,-3.5 h 13.53" /><path
         id="path60"
         style="fill:#000000;fill-opacity:1;fill-rule:nonzero;stroke:none"
         d="m 716.113,1429.39 c 0.36,2.16 1.078,3.95 1.078,6.47 0,6.11 -4.308,9.7 -10.418,9.7 -3.582,0 -13.281,-2.52 -14.718,-15.45 -6.473,13.3 -19.032,22.63 -33.41,22.63 -40.942,0 -85.473,-50.28 -85.473,-101.98 0,-35.56 21.91,-56.75 47.769,-56.75 21.192,0 38.063,16.88 41.661,20.83 l 0.363,-0.36 c -7.551,-31.97 -11.84,-46.69 -11.84,-47.41 -1.441,-3.23 -13.66,-38.78 -51.723,-38.78 -6.828,0 -18.668,0.36 -28.73,3.59 10.781,3.22 14.723,12.56 14.723,18.67 0,5.75 -3.942,12.56 -13.641,12.56 -7.91,0 -19.391,-6.45 -19.391,-20.83 0,-14.72 13.282,-21.91 47.77,-21.91 44.89,0 70.75,28.02 76.14,49.56 l 39.86,159.45 z m -46.691,-89.42 c -2.16,-9.34 -10.418,-18.31 -18.309,-25.14 -7.55,-6.47 -18.691,-12.92 -29.09,-12.92 -17.949,0 -23.339,18.67 -23.339,33.03 0,17.25 10.41,59.63 20.109,77.94 9.699,17.59 25.141,31.97 40.219,31.97 23.703,0 28.73,-29.09 28.73,-30.89 0,-1.8 -0.719,-3.95 -1.078,-5.39 l -17.23,-68.59" /><path
         id="path62"
         style="fill:#000000;fill-opacity:1;fill-rule:nonzero;stroke:none"
         d="m 844.531,1286.61 h -8.527 c -0.75,-5.5 -3.25,-20.3 -6.52,-22.8 -2,-1.52 -21.3,-1.52 -24.812,-1.52 h -46.109 c 26.312,23.31 35.082,30.33 50.128,42.11 18.551,14.8 35.84,30.33 35.84,54.14 0,30.33 -26.578,48.88 -58.656,48.88 -31.082,0 -52.121,-21.81 -52.121,-44.86 0,-12.78 10.769,-14.05 13.277,-14.05 6.024,0 13.282,4.27 13.282,13.3 0,4.5 -1.75,13.28 -14.801,13.28 7.781,17.8 24.812,23.31 36.59,23.31 25.062,0 38.113,-19.56 38.113,-39.86 0,-21.8 -15.551,-39.09 -23.563,-48.12 l -60.41,-59.64 c -2.5,-2.27 -2.5,-2.77 -2.5,-9.78 h 103.25 l 7.531,45.61" /><path
         id="path64"
         style="fill:#000000;fill-opacity:1;fill-rule:nonzero;stroke:none"
         d="m 944.922,1400.41 c 0,6.77 -0.5,7.02 -7.527,7.02 -16.032,-15.8 -38.84,-16.05 -49.122,-16.05 v -9.02 c 6.02,0 22.559,0 36.34,7.02 v -127.83 c 0,-8.27 0,-11.53 -25.058,-11.53 h -9.524 V 1241 c 4.5,0.25 35.332,1 44.614,1 7.769,0 39.339,-0.75 44.859,-1 v 9.02 h -9.52 c -25.062,0 -25.062,3.27 -25.062,11.53 v 138.86" /><path
         id="path66"
         style="fill:#000000;fill-opacity:1;fill-rule:nonzero;stroke:none"
         d="m 1648.11,1429.39 c 0.36,2.16 1.08,3.95 1.08,6.47 0,6.11 -4.31,9.7 -10.42,9.7 -3.58,0 -13.28,-2.52 -14.72,-15.45 -6.47,13.3 -19.03,22.63 -33.41,22.63 -40.94,0 -85.47,-50.28 -85.47,-101.98 0,-35.56 21.91,-56.75 47.77,-56.75 21.19,0 38.06,16.88 41.66,20.83 l 0.36,-0.36 c -7.55,-31.97 -11.83,-46.69 -11.83,-47.41 -1.45,-3.23 -13.67,-38.78 -51.73,-38.78 -6.83,0 -18.67,0.36 -28.73,3.59 10.78,3.22 14.72,12.56 14.72,18.67 0,5.75 -3.94,12.56 -13.64,12.56 -7.91,0 -19.39,-6.45 -19.39,-20.83 0,-14.72 13.28,-21.91 47.77,-21.91 44.89,0 70.75,28.02 76.14,49.56 l 39.86,159.45 z m -46.69,-89.42 c -2.16,-9.34 -10.42,-18.31 -18.31,-25.14 -7.55,-6.47 -18.69,-12.92 -29.09,-12.92 -17.95,0 -23.34,18.67 -23.34,33.03 0,17.25 10.41,59.63 20.11,77.94 9.7,17.59 25.14,31.97 40.22,31.97 23.7,0 28.73,-29.09 28.73,-30.89 0,-1.8 -0.72,-3.95 -1.08,-5.39 l -17.23,-68.59" /><path
         id="path68"
         style="fill:#000000;fill-opacity:1;fill-rule:nonzero;stroke:none"
         d="M 1777.53,1286.61 H 1769 c -0.75,-5.5 -3.25,-20.3 -6.52,-22.8 -2,-1.52 -21.3,-1.52 -24.81,-1.52 h -46.11 c 26.32,23.31 35.08,30.33 50.13,42.11 18.55,14.8 35.84,30.33 35.84,54.14 0,30.33 -26.58,48.88 -58.65,48.88 -31.09,0 -52.13,-21.81 -52.13,-44.86 0,-12.78 10.77,-14.05 13.28,-14.05 6.02,0 13.28,4.27 13.28,13.3 0,4.5 -1.75,13.28 -14.8,13.28 7.78,17.8 24.81,23.31 36.59,23.31 25.06,0 38.11,-19.56 38.11,-39.86 0,-21.8 -15.55,-39.09 -23.56,-48.12 l -60.41,-59.64 c -2.5,-2.27 -2.5,-2.77 -2.5,-9.78 h 103.25 l 7.53,45.61" /><path
         id="path70"
         style="fill:#000000;fill-opacity:1;fill-rule:nonzero;stroke:none"
         d="M 1919.53,1286.61 H 1911 c -0.75,-5.5 -3.25,-20.3 -6.52,-22.8 -2,-1.52 -21.3,-1.52 -24.81,-1.52 h -46.11 c 26.32,23.31 35.08,30.33 50.13,42.11 18.55,14.8 35.84,30.33 35.84,54.14 0,30.33 -26.58,48.88 -58.65,48.88 -31.09,0 -52.13,-21.81 -52.13,-44.86 0,-12.78 10.77,-14.05 13.28,-14.05 6.02,0 13.28,4.27 13.28,13.3 0,4.5 -1.75,13.28 -14.8,13.28 7.78,17.8 24.81,23.31 36.59,23.31 25.06,0 38.11,-19.56 38.11,-39.86 0,-21.8 -15.55,-39.09 -23.56,-48.12 l -60.41,-59.64 c -2.5,-2.27 -2.5,-2.77 -2.5,-9.78 h 103.25 l 7.53,45.61" /><path
         id="path72"
         style="fill:#000000;fill-opacity:1;fill-rule:nonzero;stroke:none"
         d="m 2581.11,1429.39 c 0.36,2.16 1.08,3.95 1.08,6.47 0,6.11 -4.31,9.7 -10.42,9.7 -3.58,0 -13.28,-2.52 -14.72,-15.45 -6.47,13.3 -19.03,22.63 -33.41,22.63 -40.94,0 -85.47,-50.28 -85.47,-101.98 0,-35.56 21.91,-56.75 47.77,-56.75 21.19,0 38.06,16.88 41.66,20.83 l 0.36,-0.36 c -7.55,-31.97 -11.84,-46.69 -11.84,-47.41 -1.44,-3.23 -13.66,-38.78 -51.72,-38.78 -6.83,0 -18.67,0.36 -28.73,3.59 10.78,3.22 14.72,12.56 14.72,18.67 0,5.75 -3.94,12.56 -13.64,12.56 -7.91,0 -19.39,-6.45 -19.39,-20.83 0,-14.72 13.28,-21.91 47.77,-21.91 44.89,0 70.75,28.02 76.14,49.56 l 39.86,159.45 z m -46.69,-89.42 c -2.16,-9.34 -10.42,-18.31 -18.31,-25.14 -7.55,-6.47 -18.69,-12.92 -29.09,-12.92 -17.95,0 -23.34,18.67 -23.34,33.03 0,17.25 10.41,59.63 20.11,77.94 9.7,17.59 25.14,31.97 40.22,31.97 23.7,0 28.73,-29.09 28.73,-30.89 0,-1.8 -0.72,-3.95 -1.08,-5.39 l -17.23,-68.59" /><path
         id="path74"
         style="fill:#000000;fill-opacity:1;fill-rule:nonzero;stroke:none"
         d="M 2709.54,1286.61 H 2701 c -0.75,-5.5 -3.25,-20.3 -6.52,-22.8 -2,-1.52 -21.3,-1.52 -24.81,-1.52 h -46.11 c 26.32,23.31 35.08,30.33 50.13,42.11 18.55,14.8 35.85,30.33 35.85,54.14 0,30.33 -26.59,48.88 -58.66,48.88 -31.09,0 -52.13,-21.81 -52.13,-44.86 0,-12.78 10.77,-14.05 13.29,-14.05 6.01,0 13.27,4.27 13.27,13.3 0,4.5 -1.75,13.28 -14.8,13.28 7.78,17.8 24.81,23.31 36.59,23.31 25.06,0 38.11,-19.56 38.11,-39.86 0,-21.8 -15.55,-39.09 -23.56,-48.12 l -60.41,-59.64 c -2.5,-2.27 -2.5,-2.77 -2.5,-9.78 h 103.25 l 7.53,45.61" /><path
         id="path76"
         style="fill:#000000;fill-opacity:1;fill-rule:nonzero;stroke:none"
         d="m 2794.38,1324.72 c 19.54,0 33.58,-13.55 33.58,-40.36 0,-31.08 -18.05,-40.36 -32.58,-40.36 -10.03,0 -32.09,2.77 -42.62,17.55 11.78,0.5 14.55,8.78 14.55,14.05 0,8.02 -6.02,13.78 -13.8,13.78 -7.02,0 -14.03,-4.27 -14.03,-14.55 0,-23.55 26.06,-38.84 56.39,-38.84 34.84,0 58.91,23.31 58.91,48.38 0,19.55 -16.05,39.09 -43.61,44.86 26.31,9.53 35.84,28.33 35.84,43.61 0,19.81 -22.81,34.59 -50.64,34.59 -27.81,0 -49.12,-13.53 -49.12,-33.58 0,-8.53 5.52,-13.3 13.05,-13.3 7.77,0 12.78,5.77 12.78,12.78 0,7.28 -5.02,12.53 -12.78,13.05 8.77,11.02 26.06,13.78 35.33,13.78 11.28,0 27.08,-5.52 27.08,-27.33 0,-10.52 -3.52,-22.05 -10.03,-29.81 -8.27,-9.53 -15.28,-10.03 -27.8,-10.78 -6.28,-0.5 -6.79,-0.5 -8.04,-0.75 -0.5,0 -2.5,-0.5 -2.5,-3.27 0,-3.5 2.25,-3.5 6.52,-3.5 h 13.53" /><path
         id="path78"
         style="fill:#000000;fill-opacity:1;fill-rule:nonzero;stroke:none"
         d="m 802.902,931.031 c 0,10.418 -8.621,19.028 -19.027,19.028 -10.422,0 -19.031,-8.61 -19.031,-19.028 0,-10.41 8.609,-19.031 19.031,-19.031 10.406,0 19.027,8.629 19.027,19.031" /><path
         id="path80"
         style="fill:#000000;fill-opacity:1;fill-rule:nonzero;stroke:none"
         d="m 802.902,788.031 c 0,10.418 -8.621,19.028 -19.027,19.028 -10.422,0 -19.031,-8.61 -19.031,-19.028 0,-10.41 8.609,-19.031 19.031,-19.031 10.406,0 19.027,8.629 19.027,19.031" /><path
         id="path82"
         style="fill:#000000;fill-opacity:1;fill-rule:nonzero;stroke:none"
         d="m 802.902,644.031 c 0,10.418 -8.621,19.028 -19.027,19.028 -10.422,0 -19.031,-8.61 -19.031,-19.028 0,-10.41 8.609,-19.031 19.031,-19.031 10.406,0 19.027,8.629 19.027,19.031" /><path
         id="path84"
         style="fill:#000000;fill-opacity:1;fill-rule:nonzero;stroke:none"
         d="m 1735.9,931.031 c 0,10.418 -8.62,19.028 -19.02,19.028 -10.43,0 -19.04,-8.61 -19.04,-19.028 0,-10.41 8.61,-19.031 19.04,-19.031 10.4,0 19.02,8.629 19.02,19.031" /><path
         id="path86"
         style="fill:#000000;fill-opacity:1;fill-rule:nonzero;stroke:none"
         d="m 1735.9,788.031 c 0,10.418 -8.62,19.028 -19.02,19.028 -10.43,0 -19.04,-8.61 -19.04,-19.028 0,-10.41 8.61,-19.031 19.04,-19.031 10.4,0 19.02,8.629 19.02,19.031" /><path
         id="path88"
         style="fill:#000000;fill-opacity:1;fill-rule:nonzero;stroke:none"
         d="m 1735.9,644.031 c 0,10.418 -8.62,19.028 -19.02,19.028 -10.43,0 -19.04,-8.61 -19.04,-19.028 0,-10.41 8.61,-19.031 19.04,-19.031 10.4,0 19.02,8.629 19.02,19.031" /><path
         id="path90"
         style="fill:#000000;fill-opacity:1;fill-rule:nonzero;stroke:none"
         d="m 2668.9,931.031 c 0,10.418 -8.62,19.028 -19.02,19.028 -10.43,0 -19.04,-8.61 -19.04,-19.028 0,-10.41 8.61,-19.031 19.04,-19.031 10.4,0 19.02,8.629 19.02,19.031" /><path
         id="path92"
         style="fill:#000000;fill-opacity:1;fill-rule:nonzero;stroke:none"
         d="m 2668.9,788.031 c 0,10.418 -8.62,19.028 -19.02,19.028 -10.43,0 -19.04,-8.61 -19.04,-19.028 0,-10.41 8.61,-19.031 19.04,-19.031 10.4,0 19.02,8.629 19.02,19.031" /><path
         id="path94"
         style="fill:#000000;fill-opacity:1;fill-rule:nonzero;stroke:none"
         d="m 2668.9,644.031 c 0,10.418 -8.62,19.028 -19.02,19.028 -10.43,0 -19.04,-8.61 -19.04,-19.028 0,-10.41 8.61,-19.031 19.04,-19.031 10.4,0 19.02,8.629 19.02,19.031" /><path
         id="path96"
         style="fill:#000000;fill-opacity:1;fill-rule:nonzero;stroke:none"
         d="m 666.113,330.391 c 0.36,2.16 1.078,3.949 1.078,6.468 0,6.11 -4.308,9.7 -10.418,9.7 -3.582,0 -13.281,-2.52 -14.718,-15.45 -6.473,13.301 -19.032,22.629 -33.41,22.629 -40.942,0 -85.473,-50.277 -85.473,-101.976 0,-35.563 21.91,-56.75 47.769,-56.75 21.192,0 38.063,16.879 41.661,20.828 l 0.363,-0.36 c -7.551,-31.968 -11.84,-46.691 -11.84,-47.41 -1.441,-3.23 -13.66,-38.781 -51.723,-38.781 -6.828,0 -18.668,0.359 -28.73,3.59 10.781,3.223 14.723,12.562 14.723,18.672 0,5.75 -3.942,12.558 -13.641,12.558 -7.91,0 -19.391,-6.449 -19.391,-20.828 0,-14.722 13.282,-21.91 47.77,-21.91 44.89,0 70.75,28.02 76.14,49.559 l 39.86,159.449 z m -46.691,-89.422 c -2.16,-9.34 -10.418,-18.309 -18.309,-25.141 -7.55,-6.469 -18.691,-12.918 -29.09,-12.918 -17.949,0 -23.339,18.668 -23.339,33.031 0,17.25 10.41,59.629 20.109,77.938 9.699,17.59 25.141,31.973 40.219,31.973 23.703,0 28.73,-29.09 28.73,-30.891 0,-1.801 -0.719,-3.949 -1.078,-5.391 l -17.23,-68.59" /><path
         id="path98"
         style="fill:#000000;fill-opacity:1;fill-rule:nonzero;stroke:none"
         d="m 715.332,160.551 c -2.019,-8.52 -2.519,-10.531 -22.059,-10.531 -4.519,0 -7.519,0 -7.519,-5.5 0,-3.52 3,-3.52 7.519,-3.52 h 89.481 c 55.641,0 109.019,51.129 109.019,105.77 0,36.589 -25.308,65.421 -66.16,65.421 h -91.23 c -5.02,0 -8.031,0 -8.031,-5.519 0,-3.524 2.773,-3.524 8.281,-3.524 4,0 5.019,0 9.519,-0.5 5.02,-0.5 5.52,-1 5.52,-3.5 0,-0.5 0,-1.769 -1,-5.519 l -33.328,-133.09 z m 56.141,134.09 c 2,7.769 2.25,8.519 12.781,8.519 h 32.078 c 28.082,0 51.633,-14.031 51.633,-48.121 0,-5.75 -2.5,-49.109 -27.563,-77.687 -9.777,-11.282 -31.328,-27.332 -62.16,-27.332 h -34.09 c -7.769,0 -8.019,0.269 -8.019,2.519 0,0.25 0,1.5 1,5.27 l 34.34,136.839" /><path
         id="path100"
         style="fill:#000000;fill-opacity:1;fill-rule:nonzero;stroke:none"
         d="m 993.922,300.41 c 0,6.77 -0.5,7.02 -7.527,7.02 -16.032,-15.801 -38.84,-16.051 -49.122,-16.051 v -9.02 c 6.02,0 22.559,0 36.34,7.02 V 161.551 c 0,-8.27 0,-11.531 -25.058,-11.531 h -9.524 V 141 c 4.5,0.25 35.332,1 44.614,1 7.769,0 39.335,-0.75 44.855,-1 v 9.02 h -9.52 c -25.058,0 -25.058,3.269 -25.058,11.531 V 300.41" /><path
         id="path102"
         style="fill:#000000;fill-opacity:1;fill-rule:nonzero;stroke:none"
         d="m 1599.11,330.391 c 0.36,2.16 1.08,3.949 1.08,6.468 0,6.11 -4.31,9.7 -10.42,9.7 -3.58,0 -13.28,-2.52 -14.72,-15.45 -6.47,13.301 -19.03,22.629 -33.41,22.629 -40.94,0 -85.47,-50.277 -85.47,-101.976 0,-35.563 21.91,-56.75 47.77,-56.75 21.19,0 38.06,16.879 41.66,20.828 l 0.36,-0.36 c -7.55,-31.968 -11.83,-46.691 -11.83,-47.41 -1.45,-3.23 -13.67,-38.781 -51.73,-38.781 -6.83,0 -18.67,0.359 -28.73,3.59 10.78,3.223 14.72,12.562 14.72,18.672 0,5.75 -3.94,12.558 -13.64,12.558 -7.91,0 -19.39,-6.449 -19.39,-20.828 0,-14.722 13.28,-21.91 47.77,-21.91 44.89,0 70.75,28.02 76.14,49.559 l 39.86,159.449 z m -46.69,-89.422 c -2.16,-9.34 -10.42,-18.309 -18.31,-25.141 -7.55,-6.469 -18.69,-12.918 -29.09,-12.918 -17.95,0 -23.34,18.668 -23.34,33.031 0,17.25 10.41,59.629 20.11,77.938 9.7,17.59 25.14,31.973 40.22,31.973 23.7,0 28.73,-29.09 28.73,-30.891 0,-1.801 -0.72,-3.949 -1.08,-5.391 l -17.23,-68.59" /><path
         id="path104"
         style="fill:#000000;fill-opacity:1;fill-rule:nonzero;stroke:none"
         d="m 1648.33,160.551 c -2.02,-8.52 -2.52,-10.531 -22.06,-10.531 -4.52,0 -7.52,0 -7.52,-5.5 0,-3.52 3,-3.52 7.52,-3.52 h 89.48 c 55.64,0 109.02,51.129 109.02,105.77 0,36.589 -25.31,65.421 -66.16,65.421 h -91.23 c -5.02,0 -8.03,0 -8.03,-5.519 0,-3.524 2.78,-3.524 8.28,-3.524 4,0 5.02,0 9.52,-0.5 5.02,-0.5 5.52,-1 5.52,-3.5 0,-0.5 0,-1.769 -1,-5.519 l -33.33,-133.09 z m 56.14,134.09 c 2,7.769 2.25,8.519 12.78,8.519 h 32.08 c 28.08,0 51.63,-14.031 51.63,-48.121 0,-5.75 -2.5,-49.109 -27.56,-77.687 -9.77,-11.282 -31.33,-27.332 -62.16,-27.332 h -34.09 c -7.77,0 -8.02,0.269 -8.02,2.519 0,0.25 0,1.5 1,5.27 l 34.34,136.839" /><path
         id="path106"
         style="fill:#000000;fill-opacity:1;fill-rule:nonzero;stroke:none"
         d="M 1969.53,186.609 H 1961 c -0.75,-5.5 -3.25,-20.3 -6.52,-22.8 -2,-1.52 -21.3,-1.52 -24.81,-1.52 h -46.11 c 26.32,23.313 35.08,30.332 50.13,42.109 18.55,14.801 35.84,30.332 35.84,54.141 0,30.332 -26.58,48.883 -58.65,48.883 -31.09,0 -52.13,-21.813 -52.13,-44.863 0,-12.778 10.77,-14.047 13.28,-14.047 6.02,0 13.28,4.269 13.28,13.297 0,4.5 -1.75,13.281 -14.8,13.281 7.78,17.801 24.81,23.308 36.59,23.308 25.06,0 38.11,-19.558 38.11,-39.859 0,-21.801 -15.55,-39.09 -23.56,-48.117 l -60.41,-59.641 c -2.5,-2.269 -2.5,-2.769 -2.5,-9.781 h 103.25 l 7.53,45.609" /><path
         id="path108"
         style="fill:#000000;fill-opacity:1;fill-rule:nonzero;stroke:none"
         d="m 2532.11,330.391 c 0.36,2.16 1.08,3.949 1.08,6.468 0,6.11 -4.31,9.7 -10.42,9.7 -3.58,0 -13.28,-2.52 -14.72,-15.45 -6.47,13.301 -19.03,22.629 -33.41,22.629 -40.94,0 -85.47,-50.277 -85.47,-101.976 0,-35.563 21.91,-56.75 47.77,-56.75 21.19,0 38.06,16.879 41.66,20.828 l 0.36,-0.36 c -7.55,-31.968 -11.84,-46.691 -11.84,-47.41 -1.44,-3.23 -13.66,-38.781 -51.72,-38.781 -6.83,0 -18.67,0.359 -28.73,3.59 10.78,3.223 14.72,12.562 14.72,18.672 0,5.75 -3.94,12.558 -13.64,12.558 -7.91,0 -19.39,-6.449 -19.39,-20.828 0,-14.722 13.28,-21.91 47.77,-21.91 44.89,0 70.75,28.02 76.14,49.559 l 39.86,159.449 z m -46.69,-89.422 c -2.16,-9.34 -10.42,-18.309 -18.31,-25.141 -7.55,-6.469 -18.69,-12.918 -29.09,-12.918 -17.95,0 -23.34,18.668 -23.34,33.031 0,17.25 10.41,59.629 20.11,77.938 9.7,17.59 25.14,31.973 40.22,31.973 23.7,0 28.73,-29.09 28.73,-30.891 0,-1.801 -0.72,-3.949 -1.08,-5.391 l -17.23,-68.59" /><path
         id="path110"
         style="fill:#000000;fill-opacity:1;fill-rule:nonzero;stroke:none"
         d="m 2581.33,160.551 c -2.02,-8.52 -2.52,-10.531 -22.06,-10.531 -4.52,0 -7.52,0 -7.52,-5.5 0,-3.52 3,-3.52 7.52,-3.52 h 89.48 c 55.64,0 109.02,51.129 109.02,105.77 0,36.589 -25.31,65.421 -66.16,65.421 h -91.23 c -5.02,0 -8.03,0 -8.03,-5.519 0,-3.524 2.77,-3.524 8.28,-3.524 4,0 5.02,0 9.52,-0.5 5.02,-0.5 5.52,-1 5.52,-3.5 0,-0.5 0,-1.769 -1,-5.519 l -33.33,-133.09 z m 56.14,134.09 c 2,7.769 2.25,8.519 12.78,8.519 h 32.08 c 28.08,0 51.63,-14.031 51.63,-48.121 0,-5.75 -2.5,-49.109 -27.56,-77.687 -9.77,-11.282 -31.33,-27.332 -62.16,-27.332 h -34.09 c -7.77,0 -8.02,0.269 -8.02,2.519 0,0.25 0,1.5 1,5.27 l 34.34,136.839" /><path
         id="path112"
         style="fill:#000000;fill-opacity:1;fill-rule:nonzero;stroke:none"
         d="m 2844.38,224.719 c 19.54,0 33.58,-13.547 33.58,-40.36 0,-31.078 -18.05,-40.359 -32.58,-40.359 -10.03,0 -32.09,2.77 -42.62,17.551 11.78,0.5 14.55,8.777 14.55,14.051 0,8.019 -6.02,13.777 -13.8,13.777 -7.02,0 -14.03,-4.27 -14.03,-14.551 0,-23.547 26.06,-38.84 56.39,-38.84 34.84,0 58.91,23.313 58.91,48.383 0,19.551 -16.05,39.09 -43.61,44.859 26.31,9.532 35.84,28.329 35.84,43.61 0,19.808 -22.81,34.59 -50.64,34.59 -27.81,0 -49.12,-13.532 -49.12,-33.578 0,-8.532 5.52,-13.301 13.05,-13.301 7.77,0 12.78,5.769 12.78,12.777 0,7.281 -5.02,12.531 -12.78,13.051 8.77,11.019 26.06,13.781 35.33,13.781 11.28,0 27.08,-5.519 27.08,-27.332 0,-10.519 -3.52,-22.047 -10.03,-29.808 -8.27,-9.532 -15.28,-10.032 -27.8,-10.782 -6.28,-0.5 -6.79,-0.5 -8.04,-0.75 -0.5,0 -2.5,-0.5 -2.5,-3.269 0,-3.5 2.25,-3.5 6.52,-3.5 h 13.53" /><path
         id="path114"
         style="fill:#000000;fill-opacity:1;fill-rule:nonzero;stroke:none"
         d="m 3034.29,1367.91 h 24.77 V 2014 h -119.59 v -24.78 h 94.82 v -621.31" /><path
         id="path116"
         style="fill:#000000;fill-opacity:1;fill-rule:nonzero;stroke:none"
         d="m 3034.29,1153.16 h 24.7813 v 216.203 H 3034.29 Z" /><path
         id="path118"
         style="fill:#000000;fill-opacity:1;fill-rule:nonzero;stroke:none"
         d="m 3034.29,937.156 h 24.7813 v 216.203 H 3034.29 Z" /><path
         id="path120"
         style="fill:#000000;fill-opacity:1;fill-rule:nonzero;stroke:none"
         d="m 3034.29,722.156 h 24.7813 V 938.359 H 3034.29 Z" /><path
         id="path122"
         style="fill:#000000;fill-opacity:1;fill-rule:nonzero;stroke:none"
         d="m 3034.29,102.051 h -94.82 V 77.2695 h 119.59 V 723.359 h -24.78 V 102.051" /><path
         id="path124"
         style="fill:#000000;fill-opacity:1;fill-rule:nonzero;stroke:none"
         d="m 3228.84,52.0195 c 0,-13.8007 -2.52,-29.8281 -19.56,-45.87106 -1,-1 -1.75,-1.75 -1.75,-3 0,-1.76953 2,-3.519534 3.52,-3.519534 3.5,0 24.81,20.050794 24.81,49.882794 0,15.5469 -6.02,27.3281 -17.55,27.3281 -8.27,0 -14.28,-6.5195 -14.28,-14.3007 0,-8.0196 5.75,-14.5274 14.53,-14.5274 6.02,0 10.03,4.0196 10.28,4.0196" /><path
         id="path126"
         style="fill:#000000;fill-opacity:1;fill-rule:nonzero;stroke:none"
         d="m 3755.04,1367.91 h 24.77 v 621.31 h 94.82 V 2014 h -119.59 v -646.09" /><path
         id="path128"
         style="fill:#000000;fill-opacity:1;fill-rule:nonzero;stroke:none"
         d="m 3755.04,1153.16 h 24.7813 v 216.203 H 3755.04 Z" /><path
         id="path130"
         style="fill:#000000;fill-opacity:1;fill-rule:nonzero;stroke:none"
         d="m 3755.04,937.156 h 24.7813 v 216.203 H 3755.04 Z" /><path
         id="path132"
         style="fill:#000000;fill-opacity:1;fill-rule:nonzero;stroke:none"
         d="m 3755.04,722.156 h 24.7813 V 938.359 H 3755.04 Z" /><path
         id="path134"
         style="fill:#000000;fill-opacity:1;fill-rule:nonzero;stroke:none"
         d="m 3755.04,77.2695 h 119.59 v 24.7815 h -94.82 v 621.308 h -24.78 V 77.2695" /><path
         id="path136"
         style="fill:#000000;fill-opacity:1;fill-rule:nonzero;stroke:none"
         d="m 4011.79,1970.3 c 0,0.36 0,3.95 -4.66,3.95 -8.28,0 -34.49,-2.87 -43.84,-3.59 -2.86,-0.36 -6.81,-0.72 -6.81,-7.19 0,-4.31 3.23,-4.31 8.61,-4.31 17.25,0 17.97,-2.52 17.97,-6.09 0,-2.52 -3.23,-14.73 -5.03,-22.28 l -29.45,-117.08 c -4.31,-17.95 -5.75,-23.7 -5.75,-36.27 0,-34.12 19.05,-56.39 45.61,-56.39 42.39,0 86.56,53.52 86.56,105.23 0,32.67 -19.03,57.45 -47.77,57.45 -16.53,0 -31.25,-10.41 -42.02,-21.55 l 26.56,108.11 z m -33.75,-135.77 c 2.15,7.91 2.15,8.63 5.38,12.58 17.59,23.34 33.75,28.73 43.09,28.73 12.92,0 22.63,-10.78 22.63,-33.77 0,-21.19 -11.86,-62.48 -18.31,-76.14 -11.86,-24.06 -28.37,-36.98 -42.39,-36.98 -12.2,0 -24.06,9.69 -24.06,36.27 0,6.83 0,13.66 5.75,36.28 l 7.91,33.03" /><path
         id="path138"
         style="fill:#000000;fill-opacity:1;fill-rule:nonzero;stroke:none"
         d="m 4163.92,1830.41 c 0,6.77 -0.5,7.02 -7.53,7.02 -16.03,-15.8 -38.84,-16.05 -49.12,-16.05 v -9.02 c 6.02,0 22.56,0 36.34,7.02 v -127.83 c 0,-8.27 0,-11.53 -25.06,-11.53 h -9.51 V 1671 c 4.5,0.25 35.32,1 44.6,1 7.77,0 39.34,-0.75 44.86,-1 v 9.02 h -9.52 c -25.06,0 -25.06,3.27 -25.06,11.53 v 138.86" /><path
         id="path140"
         style="fill:#000000;fill-opacity:1;fill-rule:nonzero;stroke:none"
         d="m 4011.79,1539.3 c 0,0.36 0,3.95 -4.66,3.95 -8.28,0 -34.49,-2.87 -43.84,-3.59 -2.86,-0.36 -6.81,-0.72 -6.81,-7.19 0,-4.31 3.23,-4.31 8.61,-4.31 17.25,0 17.97,-2.52 17.97,-6.09 0,-2.52 -3.23,-14.73 -5.03,-22.28 l -29.45,-117.08 c -4.31,-17.95 -5.75,-23.7 -5.75,-36.27 0,-34.12 19.05,-56.39 45.61,-56.39 42.39,0 86.56,53.52 86.56,105.23 0,32.67 -19.03,57.45 -47.77,57.45 -16.53,0 -31.25,-10.41 -42.02,-21.55 l 26.56,108.11 z m -33.75,-135.77 c 2.15,7.91 2.15,8.63 5.38,12.58 17.59,23.34 33.75,28.73 43.09,28.73 12.92,0 22.63,-10.78 22.63,-33.77 0,-21.19 -11.86,-62.48 -18.31,-76.14 -11.86,-24.06 -28.37,-36.98 -42.39,-36.98 -12.2,0 -24.06,9.69 -24.06,36.27 0,6.83 0,13.66 5.75,36.28 l 7.91,33.03" /><path
         id="path142"
         style="fill:#000000;fill-opacity:1;fill-rule:nonzero;stroke:none"
         d="M 4206.54,1286.61 H 4198 c -0.75,-5.5 -3.25,-20.3 -6.52,-22.8 -2,-1.52 -21.3,-1.52 -24.81,-1.52 h -46.11 c 26.32,23.31 35.08,30.33 50.13,42.11 18.55,14.8 35.85,30.33 35.85,54.14 0,30.33 -26.59,48.88 -58.66,48.88 -31.09,0 -52.13,-21.81 -52.13,-44.86 0,-12.78 10.77,-14.05 13.29,-14.05 6.01,0 13.27,4.27 13.27,13.3 0,4.5 -1.75,13.28 -14.8,13.28 7.78,17.8 24.81,23.31 36.59,23.31 25.06,0 38.11,-19.56 38.11,-39.86 0,-21.8 -15.55,-39.09 -23.56,-48.12 l -60.41,-59.64 c -2.5,-2.27 -2.5,-2.77 -2.5,-9.78 h 103.25 l 7.53,45.61" /><path
         id="path144"
         style="fill:#000000;fill-opacity:1;fill-rule:nonzero;stroke:none"
         d="m 4102.9,931.031 c 0,10.418 -8.61,19.028 -19.02,19.028 -10.43,0 -19.04,-8.61 -19.04,-19.028 0,-10.41 8.61,-19.031 19.04,-19.031 10.41,0 19.02,8.629 19.02,19.031" /><path
         id="path146"
         style="fill:#000000;fill-opacity:1;fill-rule:nonzero;stroke:none"
         d="m 4102.9,788.031 c 0,10.418 -8.61,19.028 -19.02,19.028 -10.43,0 -19.04,-8.61 -19.04,-19.028 0,-10.41 8.61,-19.031 19.04,-19.031 10.41,0 19.02,8.629 19.02,19.031" /><path
         id="path148"
         style="fill:#000000;fill-opacity:1;fill-rule:nonzero;stroke:none"
         d="m 4102.9,644.031 c 0,10.418 -8.61,19.028 -19.02,19.028 -10.43,0 -19.04,-8.61 -19.04,-19.028 0,-10.41 8.61,-19.031 19.04,-19.031 10.41,0 19.02,8.629 19.02,19.031" /><path
         id="path150"
         style="fill:#000000;fill-opacity:1;fill-rule:nonzero;stroke:none"
         d="m 3962.79,440.301 c 0,0.359 0,3.949 -4.66,3.949 -8.28,0 -34.49,-2.871 -43.84,-3.59 -2.86,-0.359 -6.81,-0.719 -6.81,-7.191 0,-4.309 3.23,-4.309 8.61,-4.309 17.25,0 17.97,-2.519 17.97,-6.09 0,-2.519 -3.23,-14.73 -5.03,-22.281 l -29.45,-117.078 c -4.31,-17.949 -5.75,-23.699 -5.75,-36.27 0,-34.121 19.05,-56.39 45.61,-56.39 42.39,0 86.56,53.519 86.56,105.23 0,32.668 -19.03,57.449 -47.77,57.449 -16.53,0 -31.25,-10.41 -42.02,-21.55 l 26.56,108.109 z m -33.75,-135.77 c 2.15,7.91 2.15,8.629 5.38,12.578 17.59,23.34 33.75,28.731 43.09,28.731 12.92,0 22.63,-10.781 22.63,-33.77 0,-21.191 -11.86,-62.48 -18.31,-76.14 -11.86,-24.059 -28.37,-36.981 -42.39,-36.981 -12.2,0 -24.06,9.692 -24.06,36.27 0,6.832 0,13.66 5.75,36.281 l 7.91,33.031" /><path
         id="path152"
         style="fill:#000000;fill-opacity:1;fill-rule:nonzero;stroke:none"
         d="m 4078.33,160.551 c -2.02,-8.52 -2.52,-10.531 -22.06,-10.531 -4.52,0 -7.52,0 -7.52,-5.5 0,-3.52 3,-3.52 7.52,-3.52 h 89.48 c 55.64,0 109.02,51.129 109.02,105.77 0,36.589 -25.31,65.421 -66.16,65.421 h -91.23 c -5.02,0 -8.03,0 -8.03,-5.519 0,-3.524 2.77,-3.524 8.28,-3.524 4,0 5.02,0 9.52,-0.5 5.02,-0.5 5.52,-1 5.52,-3.5 0,-0.5 0,-1.769 -1,-5.519 l -33.33,-133.09 z m 56.14,134.09 c 2,7.769 2.25,8.519 12.78,8.519 h 32.08 c 28.08,0 51.63,-14.031 51.63,-48.121 0,-5.75 -2.5,-49.109 -27.56,-77.687 -9.77,-11.282 -31.33,-27.332 -62.16,-27.332 h -34.09 c -7.77,0 -8.02,0.269 -8.02,2.519 0,0.25 0,1.5 1,5.27 l 34.34,136.839" /><path
         id="path154"
         style="fill:#000000;fill-opacity:1;fill-rule:nonzero;stroke:none"
         d="m 4388.29,1367.91 h 24.77 V 2014 h -119.59 v -24.78 h 94.82 v -621.31" /><path
         id="path156"
         style="fill:#000000;fill-opacity:1;fill-rule:nonzero;stroke:none"
         d="m 4388.29,1153.16 h 24.7813 v 216.203 H 4388.29 Z" /><path
         id="path158"
         style="fill:#000000;fill-opacity:1;fill-rule:nonzero;stroke:none"
         d="m 4388.29,937.156 h 24.7813 v 216.203 H 4388.29 Z" /><path
         id="path160"
         style="fill:#000000;fill-opacity:1;fill-rule:nonzero;stroke:none"
         d="m 4388.29,722.156 h 24.7813 V 938.359 H 4388.29 Z" /><path
         id="path162"
         style="fill:#000000;fill-opacity:1;fill-rule:nonzero;stroke:none"
         d="m 4388.29,102.051 h -94.82 V 77.2695 h 119.59 V 723.359 h -24.78 V 102.051" /><path
         id="path164"
         style="fill:#000000;fill-opacity:1;fill-rule:nonzero;stroke:none"
         d="m 4667.86,1663.88 c 0,-9.33 0.36,-9.69 10.06,-9.69 h 22.98 c 9.69,0 10.05,0.36 10.05,9.69 v 154.44 c 0,52.8 -27.64,120.67 -104.86,162.33 h -5.39 c -9.34,0 -9.7,-0.36 -9.7,-8.62 0,-6.45 0.36,-6.81 1.8,-7.89 11.14,-8.27 37,-26.58 53.88,-59.62 9.7,-19.39 21.2,-47.41 21.2,-86.19 v -154.44" /><path
         id="path166"
         style="fill:#000000;fill-opacity:1;fill-rule:nonzero;stroke:none"
         d="m 4710.95,1651.89 c 0,9.34 -0.36,9.7 -10.05,9.7 h -22.98 c -9.7,0 -10.06,-0.36 -10.06,-9.7 v -95.53 c 0,-9.33 0.36,-9.69 10.06,-9.69 h 22.98 c 9.69,0 10.05,0.36 10.05,9.69 v 95.53" /><path
         id="path168"
         style="fill:#000000;fill-opacity:1;fill-rule:nonzero;stroke:none"
         d="m 4710.95,1543.89 c 0,9.34 -0.36,9.7 -10.05,9.7 h -22.98 c -9.7,0 -10.06,-0.36 -10.06,-9.7 v -95.53 c 0,-9.33 0.36,-9.69 10.06,-9.69 h 22.98 c 9.69,0 10.05,0.36 10.05,9.69 v 95.53" /><path
         id="path170"
         style="fill:#000000;fill-opacity:1;fill-rule:nonzero;stroke:none"
         d="m 4710.95,1436.89 c 0,9.34 -0.36,9.7 -10.05,9.7 h -22.98 c -9.7,0 -10.06,-0.36 -10.06,-9.7 v -95.53 c 0,-9.33 0.36,-9.69 10.06,-9.69 h 22.98 c 9.69,0 10.05,0.36 10.05,9.69 v 95.53" /><path
         id="path172"
         style="fill:#000000;fill-opacity:1;fill-rule:nonzero;stroke:none"
         d="m 4710.95,846.559 c 0,30.171 6.47,104.882 72.55,155.161 3.95,3.23 4.31,3.59 4.31,10.05 0,6.47 -0.36,6.83 -4.31,10.06 -9.33,7.19 -34.11,26.22 -51.34,62.48 -14.02,28.73 -21.2,60.7 -21.2,92.67 v 151.91 c 0,9.34 -0.36,9.7 -10.05,9.7 h -22.98 c -9.7,0 -10.05,-0.36 -10.05,-9.7 v -151.55 c 0,-43.47 18.32,-116.73 98.76,-165.58 -81.16,-49.201 -98.76,-123.17 -98.76,-165.561 V 694.648 c 0,-9.339 0.35,-9.699 10.05,-9.699 h 22.98 c 9.69,0 10.05,0.36 10.05,9.699 v 151.911" /><path
         id="path174"
         style="fill:#000000;fill-opacity:1;fill-rule:nonzero;stroke:none"
         d="m 4710.95,683.891 c 0,9.339 -0.36,9.699 -10.05,9.699 h -22.98 c -9.7,0 -10.06,-0.36 -10.06,-9.699 v -95.532 c 0,-9.328 0.36,-9.687 10.06,-9.687 h 22.98 c 9.69,0 10.05,0.359 10.05,9.687 v 95.532" /><path
         id="path176"
         style="fill:#000000;fill-opacity:1;fill-rule:nonzero;stroke:none"
         d="m 4710.95,575.891 c 0,9.339 -0.36,9.699 -10.05,9.699 h -22.98 c -9.7,0 -10.06,-0.36 -10.06,-9.699 v -95.532 c 0,-9.328 0.36,-9.687 10.06,-9.687 h 22.98 c 9.69,0 10.05,0.359 10.05,9.687 v 95.532" /><path
         id="path178"
         style="fill:#000000;fill-opacity:1;fill-rule:nonzero;stroke:none"
         d="m 4710.95,468.891 c 0,9.339 -0.36,9.699 -10.05,9.699 h -22.98 c -9.7,0 -10.06,-0.36 -10.06,-9.699 v -95.532 c 0,-9.328 0.36,-9.687 10.06,-9.687 h 22.98 c 9.69,0 10.05,0.359 10.05,9.687 v 95.532" /><path
         id="path180"
         style="fill:#000000;fill-opacity:1;fill-rule:nonzero;stroke:none"
         d="m 4667.86,206.469 c 0,-31.25 -8.61,-98.77 -71.82,-143.2971 -4.68,-3.5938 -5.04,-3.9531 -5.04,-10.4219 0,-8.2695 0.36,-8.6211 9.7,-8.6211 h 5.39 c 77.58,41.6719 104.86,109.5511 104.86,162.3401 v 154.422 c 0,9.339 -0.36,9.699 -10.05,9.699 h -22.98 c -9.7,0 -10.06,-0.36 -10.06,-9.699 V 206.469" /></g></g></svg>