<?xml version="1.0" encoding="UTF-8" standalone="no"?>
<svg
   xmlns:dc="http://purl.org/dc/elements/1.1/"
   xmlns:cc="http://creativecommons.org/ns#"
   xmlns:rdf="http://www.w3.org/1999/02/22-rdf-syntax-ns#"
   xmlns:svg="http://www.w3.org/2000/svg"
   xmlns="http://www.w3.org/2000/svg"
   viewBox="0 0 481.60001 229.56"
   height="229.56"
   width="481.60001"
   xml:space="preserve"
   id="svg2"
   version="1.1"><metadata
     id="metadata8"><rdf:RDF><cc:Work
         rdf:about=""><dc:format>image/svg+xml</dc:format><dc:type
           rdf:resource="http://purl.org/dc/dcmitype/StillImage" /></cc:Work></rdf:RDF></metadata><defs
     id="defs6" /><g
     transform="matrix(1.3333333,0,0,-1.3333333,0,229.56)"
     id="g10"><g
       transform="scale(0.1)"
       id="g12"><path
         id="path14"
         style="fill:#000000;fill-opacity:1;fill-rule:nonzero;stroke:none"
         d="m 0,1075.64 h 24.7813 v 621.31 h 94.8127 v 24.78 H 0 v -646.09" /><path
         id="path16"
         style="fill:#000000;fill-opacity:1;fill-rule:nonzero;stroke:none"
         d="m 0,859.891 h 24.7813 v 216.203 H 0 Z" /><path
         id="path18"
         style="fill:#000000;fill-opacity:1;fill-rule:nonzero;stroke:none"
         d="M 0,644.891 H 24.7813 V 861.094 H 0 Z" /><path
         id="path20"
         style="fill:#000000;fill-opacity:1;fill-rule:nonzero;stroke:none"
         d="M 0,0.00390625 H 119.594 V 24.7852 H 24.7813 V 646.094 H 0 V 0.00390625" /><path
         id="path22"
         style="fill:#000000;fill-opacity:1;fill-rule:nonzero;stroke:none"
         d="m 186.203,1462.04 c -14.359,-24.07 -28.359,-29.09 -44.172,-30.16 -4.308,-0.36 -7.551,-0.36 -7.551,-7.2 0,-2.16 1.801,-3.95 4.672,-3.95 9.7,0 20.828,1.08 30.891,1.08 11.859,0 24.418,-1.08 35.918,-1.08 2.141,0 6.812,0 6.812,6.83 0,3.96 -3.23,4.32 -5.75,4.32 -8.25,0.71 -16.871,3.57 -16.871,12.55 0,4.32 2.161,8.27 5.032,13.28 l 27.296,45.99 h 90.141 c 0.723,-7.56 5.75,-56.4 5.75,-59.99 0,-10.78 -18.668,-11.83 -25.859,-11.83 -5.032,0 -8.621,0 -8.621,-7.2 0,-3.95 4.312,-3.95 5.031,-3.95 14.719,0 30.172,1.08 44.891,1.08 8.98,0 31.609,-1.08 40.589,-1.08 2.141,0 6.45,0 6.45,7.2 0,3.95 -3.59,3.95 -8.25,3.95 -22.27,0 -22.27,2.5 -23.34,12.91 l -21.918,224.48 c -0.723,7.16 -0.723,8.61 -6.813,8.61 -5.75,0 -7.187,-2.52 -9.34,-6.09 l -124.98,-209.75 z m 43.11,52.78 70.75,118.52 11.48,-118.52 h -82.23" /><path
         id="path24"
         style="fill:#000000;fill-opacity:1;fill-rule:nonzero;stroke:none"
         d="m 474.891,1526.14 c 0,6.77 -0.5,7.02 -7.528,7.02 -16.031,-15.8 -38.84,-16.05 -49.121,-16.05 v -9.02 c 6.02,0 22.559,0 36.34,7.02 v -127.82 c 0,-8.27 0,-11.54 -25.059,-11.54 H 420 v -9.02 c 4.5,0.25 35.332,1 44.613,1 7.77,0 39.34,-0.75 44.86,-1 v 9.02 h -9.52 c -25.062,0 -25.062,3.27 -25.062,11.54 v 138.85" /><path
         id="path26"
         style="fill:#000000;fill-opacity:1;fill-rule:nonzero;stroke:none"
         d="m 617.891,1526.14 c 0,6.77 -0.5,7.02 -7.528,7.02 -16.031,-15.8 -38.84,-16.05 -49.121,-16.05 v -9.02 c 6.02,0 22.559,0 36.34,7.02 v -127.82 c 0,-8.27 0,-11.54 -25.059,-11.54 H 563 v -9.02 c 4.5,0.25 35.332,1 44.613,1 7.77,0 39.34,-0.75 44.86,-1 v 9.02 h -9.52 c -25.062,0 -25.062,3.27 -25.062,11.54 v 138.85" /><path
         id="path28"
         style="fill:#000000;fill-opacity:1;fill-rule:nonzero;stroke:none"
         d="m 1118.2,1462.04 c -14.36,-24.07 -28.36,-29.09 -44.17,-30.16 -4.31,-0.36 -7.55,-0.36 -7.55,-7.2 0,-2.16 1.8,-3.95 4.67,-3.95 9.7,0 20.83,1.08 30.89,1.08 11.86,0 24.42,-1.08 35.92,-1.08 2.14,0 6.81,0 6.81,6.83 0,3.96 -3.23,4.32 -5.75,4.32 -8.25,0.71 -16.87,3.57 -16.87,12.55 0,4.32 2.16,8.27 5.03,13.28 l 27.3,45.99 h 90.14 c 0.72,-7.56 5.75,-56.4 5.75,-59.99 0,-10.78 -18.67,-11.83 -25.86,-11.83 -5.03,0 -8.62,0 -8.62,-7.2 0,-3.95 4.31,-3.95 5.03,-3.95 14.72,0 30.17,1.08 44.89,1.08 8.98,0 31.61,-1.08 40.59,-1.08 2.14,0 6.45,0 6.45,7.2 0,3.95 -3.59,3.95 -8.25,3.95 -22.27,0 -22.27,2.5 -23.34,12.91 l -21.92,224.48 c -0.72,7.16 -0.72,8.61 -6.81,8.61 -5.75,0 -7.19,-2.52 -9.34,-6.09 l -124.98,-209.75 z m 43.11,52.78 70.75,118.52 11.48,-118.52 h -82.23" /><path
         id="path30"
         style="fill:#000000;fill-opacity:1;fill-rule:nonzero;stroke:none"
         d="m 1406.89,1526.14 c 0,6.77 -0.5,7.02 -7.53,7.02 -16.03,-15.8 -38.84,-16.05 -49.12,-16.05 v -9.02 c 6.02,0 22.56,0 36.34,7.02 v -127.82 c 0,-8.27 0,-11.54 -25.06,-11.54 H 1352 v -9.02 c 4.5,0.25 35.33,1 44.61,1 7.77,0 39.34,-0.75 44.86,-1 v 9.02 h -9.52 c -25.06,0 -25.06,3.27 -25.06,11.54 v 138.85" /><path
         id="path32"
         style="fill:#000000;fill-opacity:1;fill-rule:nonzero;stroke:none"
         d="m 1592.5,1412.34 h -8.53 c -0.75,-5.5 -3.25,-20.3 -6.52,-22.8 -2,-1.52 -21.3,-1.52 -24.81,-1.52 h -46.11 c 26.31,23.32 35.08,30.34 50.13,42.11 18.55,14.8 35.84,30.33 35.84,54.14 0,30.34 -26.58,48.89 -58.66,48.89 -31.08,0 -52.12,-21.82 -52.12,-44.87 0,-12.77 10.77,-14.04 13.28,-14.04 6.02,0 13.28,4.27 13.28,13.29 0,4.5 -1.75,13.28 -14.8,13.28 7.78,17.81 24.81,23.31 36.59,23.31 25.06,0 38.11,-19.56 38.11,-39.86 0,-21.8 -15.55,-39.09 -23.56,-48.11 l -60.41,-59.64 c -2.5,-2.27 -2.5,-2.77 -2.5,-9.79 h 103.25 l 7.53,45.61" /><path
         id="path34"
         style="fill:#000000;fill-opacity:1;fill-rule:nonzero;stroke:none"
         d="m 2049.2,1462.04 c -14.36,-24.07 -28.36,-29.09 -44.17,-30.16 -4.31,-0.36 -7.55,-0.36 -7.55,-7.2 0,-2.16 1.8,-3.95 4.67,-3.95 9.7,0 20.83,1.08 30.89,1.08 11.86,0 24.42,-1.08 35.92,-1.08 2.14,0 6.81,0 6.81,6.83 0,3.96 -3.23,4.32 -5.75,4.32 -8.25,0.71 -16.87,3.57 -16.87,12.55 0,4.32 2.16,8.27 5.03,13.28 l 27.3,45.99 h 90.14 c 0.72,-7.56 5.75,-56.4 5.75,-59.99 0,-10.78 -18.67,-11.83 -25.86,-11.83 -5.03,0 -8.62,0 -8.62,-7.2 0,-3.95 4.31,-3.95 5.03,-3.95 14.72,0 30.17,1.08 44.89,1.08 8.98,0 31.61,-1.08 40.59,-1.08 2.14,0 6.45,0 6.45,7.2 0,3.95 -3.59,3.95 -8.25,3.95 -22.27,0 -22.27,2.5 -23.34,12.91 l -21.92,224.48 c -0.72,7.16 -0.72,8.61 -6.81,8.61 -5.75,0 -7.19,-2.52 -9.34,-6.09 l -124.98,-209.75 z m 43.11,52.78 70.75,118.52 11.48,-118.52 h -82.23" /><path
         id="path36"
         style="fill:#000000;fill-opacity:1;fill-rule:nonzero;stroke:none"
         d="m 2337.89,1526.14 c 0,6.77 -0.5,7.02 -7.53,7.02 -16.03,-15.8 -38.84,-16.05 -49.12,-16.05 v -9.02 c 6.02,0 22.56,0 36.34,7.02 v -127.82 c 0,-8.27 0,-11.54 -25.06,-11.54 H 2283 v -9.02 c 4.5,0.25 35.33,1 44.61,1 7.77,0 39.34,-0.75 44.86,-1 v 9.02 h -9.52 c -25.06,0 -25.06,3.27 -25.06,11.54 v 138.85" /><path
         id="path38"
         style="fill:#000000;fill-opacity:1;fill-rule:nonzero;stroke:none"
         d="m 2465.34,1450.45 c 19.55,0 33.59,-13.54 33.59,-40.36 0,-31.07 -18.05,-40.36 -32.59,-40.36 -10.02,0 -32.08,2.77 -42.61,17.56 11.78,0.5 14.55,8.77 14.55,14.05 0,8.02 -6.02,13.77 -13.8,13.77 -7.02,0 -14.03,-4.27 -14.03,-14.55 0,-23.54 26.06,-38.84 56.39,-38.84 34.84,0 58.91,23.32 58.91,48.39 0,19.55 -16.05,39.09 -43.61,44.85 26.31,9.54 35.84,28.33 35.84,43.61 0,19.81 -22.81,34.59 -50.64,34.59 -27.81,0 -49.12,-13.53 -49.12,-33.57 0,-8.54 5.52,-13.3 13.05,-13.3 7.77,0 12.78,5.76 12.78,12.77 0,7.28 -5.02,12.53 -12.78,13.05 8.77,11.02 26.06,13.78 35.33,13.78 11.28,0 27.08,-5.51 27.08,-27.33 0,-10.52 -3.52,-22.04 -10.03,-29.81 -8.27,-9.53 -15.28,-10.03 -27.81,-10.78 -6.27,-0.5 -6.78,-0.5 -8.03,-0.75 -0.5,0 -2.5,-0.5 -2.5,-3.27 0,-3.5 2.25,-3.5 6.52,-3.5 h 13.53" /><path
         id="path40"
         style="fill:#000000;fill-opacity:1;fill-rule:nonzero;stroke:none"
         d="m 2981.2,1462.04 c -14.36,-24.07 -28.36,-29.09 -44.17,-30.16 -4.31,-0.36 -7.55,-0.36 -7.55,-7.2 0,-2.16 1.8,-3.95 4.67,-3.95 9.7,0 20.83,1.08 30.89,1.08 11.86,0 24.42,-1.08 35.92,-1.08 2.14,0 6.81,0 6.81,6.83 0,3.96 -3.23,4.32 -5.75,4.32 -8.25,0.71 -16.87,3.57 -16.87,12.55 0,4.32 2.16,8.27 5.03,13.28 l 27.3,45.99 h 90.14 c 0.72,-7.56 5.75,-56.4 5.75,-59.99 0,-10.78 -18.67,-11.83 -25.86,-11.83 -5.03,0 -8.62,0 -8.62,-7.2 0,-3.95 4.31,-3.95 5.03,-3.95 14.72,0 30.17,1.08 44.89,1.08 8.98,0 31.61,-1.08 40.59,-1.08 2.14,0 6.45,0 6.45,7.2 0,3.95 -3.59,3.95 -8.25,3.95 -22.27,0 -22.27,2.5 -23.34,12.91 l -21.92,224.48 c -0.72,7.16 -0.72,8.61 -6.81,8.61 -5.75,0 -7.19,-2.52 -9.34,-6.09 l -124.98,-209.75 z m 43.11,52.78 70.75,118.52 11.48,-118.52 h -82.23" /><path
         id="path42"
         style="fill:#000000;fill-opacity:1;fill-rule:nonzero;stroke:none"
         d="m 3269.89,1526.14 c 0,6.77 -0.5,7.02 -7.53,7.02 -16.03,-15.8 -38.84,-16.05 -49.12,-16.05 v -9.02 c 6.02,0 22.56,0 36.34,7.02 v -127.82 c 0,-8.27 0,-11.54 -25.06,-11.54 H 3215 v -9.02 c 4.5,0.25 35.33,1 44.61,1 7.77,0 39.34,-0.75 44.86,-1 v 9.02 h -9.52 c -25.06,0 -25.06,3.27 -25.06,11.54 v 138.85" /><path
         id="path44"
         style="fill:#000000;fill-opacity:1;fill-rule:nonzero;stroke:none"
         d="m 3461.51,1407.84 v 9.02 h -27.83 v 111.78 c 0,5.27 0,7.02 -5.52,7.02 -3,0 -4.02,0 -6.52,-3.5 l -82.95,-115.3 v -9.02 h 73.69 v -20.55 c 0,-8.52 0,-11.54 -20.31,-11.54 h -6.77 v -9.02 c 12.53,0.5 28.58,1 37.59,1 9.28,0 25.31,-0.5 37.84,-1 v 9.02 h -6.77 c -20.3,0 -20.3,3.02 -20.3,11.54 v 20.55 h 27.83 z m -47.37,100.75 v -91.73 h -66.17 l 66.17,91.73" /><path
         id="path46"
         style="fill:#000000;fill-opacity:1;fill-rule:nonzero;stroke:none"
         d="m 186.203,1031.04 c -14.359,-24.07 -28.359,-29.09 -44.172,-30.16 -4.308,-0.36 -7.551,-0.36 -7.551,-7.196 0,-2.161 1.801,-3.95 4.672,-3.95 9.7,0 20.828,1.079 30.891,1.079 11.859,0 24.418,-1.079 35.918,-1.079 2.141,0 6.812,0 6.812,6.829 0,3.957 -3.23,4.317 -5.75,4.317 -8.25,0.71 -16.871,3.57 -16.871,12.55 0,4.32 2.161,8.27 5.032,13.28 l 27.296,45.99 h 90.141 c 0.723,-7.56 5.75,-56.4 5.75,-59.99 0,-10.78 -18.668,-11.83 -25.859,-11.83 -5.032,0 -8.621,0 -8.621,-7.196 0,-3.95 4.312,-3.95 5.031,-3.95 14.719,0 30.172,1.079 44.891,1.079 8.98,0 31.609,-1.079 40.589,-1.079 2.141,0 6.45,0 6.45,7.192 0,3.954 -3.59,3.954 -8.25,3.954 -22.27,0 -22.27,2.5 -23.34,12.91 l -21.918,224.48 c -0.723,7.16 -0.723,8.61 -6.813,8.61 -5.75,0 -7.187,-2.52 -9.34,-6.09 l -124.98,-209.75 z m 43.11,52.78 70.75,118.52 11.48,-118.52 h -82.23" /><path
         id="path48"
         style="fill:#000000;fill-opacity:1;fill-rule:nonzero;stroke:none"
         d="m 517.5,982.344 h -8.527 c -0.75,-5.5 -3.25,-20.301 -6.52,-22.801 -2,-1.52 -21.301,-1.52 -24.812,-1.52 h -46.11 c 26.313,23.313 35.082,30.332 50.129,42.107 18.551,14.8 35.84,30.33 35.84,54.14 0,30.34 -26.578,48.89 -58.656,48.89 -31.082,0 -52.121,-21.82 -52.121,-44.87 0,-12.77 10.769,-14.04 13.277,-14.04 6.023,0 13.281,4.27 13.281,13.29 0,4.5 -1.75,13.28 -14.801,13.28 7.782,17.81 24.813,23.31 36.59,23.31 25.063,0 38.114,-19.56 38.114,-39.86 0,-21.8 -15.551,-39.09 -23.563,-48.11 l -60.41,-59.644 c -2.5,-2.27 -2.5,-2.77 -2.5,-9.782 h 103.25 l 7.531,45.61" /><path
         id="path50"
         style="fill:#000000;fill-opacity:1;fill-rule:nonzero;stroke:none"
         d="m 617.891,1096.14 c 0,6.77 -0.5,7.02 -7.528,7.02 -16.031,-15.8 -38.84,-16.05 -49.121,-16.05 v -9.02 c 6.02,0 22.559,0 36.34,7.02 V 957.285 c 0,-8.269 0,-11.531 -25.059,-11.531 H 563 v -9.02 c 4.5,0.25 35.332,1 44.613,1 7.77,0 39.34,-0.75 44.86,-1 v 9.02 h -9.52 c -25.062,0 -25.062,3.269 -25.062,11.531 v 138.855" /><path
         id="path52"
         style="fill:#000000;fill-opacity:1;fill-rule:nonzero;stroke:none"
         d="m 1118.2,1031.04 c -14.36,-24.07 -28.36,-29.09 -44.17,-30.16 -4.31,-0.36 -7.55,-0.36 -7.55,-7.196 0,-2.161 1.8,-3.95 4.67,-3.95 9.7,0 20.83,1.079 30.89,1.079 11.86,0 24.42,-1.079 35.92,-1.079 2.14,0 6.81,0 6.81,6.829 0,3.957 -3.23,4.317 -5.75,4.317 -8.25,0.71 -16.87,3.57 -16.87,12.55 0,4.32 2.16,8.27 5.03,13.28 l 27.3,45.99 h 90.14 c 0.72,-7.56 5.75,-56.4 5.75,-59.99 0,-10.78 -18.67,-11.83 -25.86,-11.83 -5.03,0 -8.62,0 -8.62,-7.196 0,-3.95 4.31,-3.95 5.03,-3.95 14.72,0 30.17,1.079 44.89,1.079 8.98,0 31.61,-1.079 40.59,-1.079 2.14,0 6.45,0 6.45,7.192 0,3.954 -3.59,3.954 -8.25,3.954 -22.27,0 -22.27,2.5 -23.34,12.91 l -21.92,224.48 c -0.72,7.16 -0.72,8.61 -6.81,8.61 -5.75,0 -7.19,-2.52 -9.34,-6.09 l -124.98,-209.75 z m 43.11,52.78 70.75,118.52 11.48,-118.52 h -82.23" /><path
         id="path54"
         style="fill:#000000;fill-opacity:1;fill-rule:nonzero;stroke:none"
         d="m 1449.5,982.344 h -8.53 c -0.75,-5.5 -3.25,-20.301 -6.52,-22.801 -2,-1.52 -21.3,-1.52 -24.81,-1.52 h -46.11 c 26.31,23.313 35.08,30.332 50.13,42.107 18.55,14.8 35.84,30.33 35.84,54.14 0,30.34 -26.58,48.89 -58.66,48.89 -31.08,0 -52.12,-21.82 -52.12,-44.87 0,-12.77 10.77,-14.04 13.28,-14.04 6.02,0 13.28,4.27 13.28,13.29 0,4.5 -1.75,13.28 -14.8,13.28 7.78,17.81 24.81,23.31 36.59,23.31 25.06,0 38.11,-19.56 38.11,-39.86 0,-21.8 -15.55,-39.09 -23.56,-48.11 l -60.41,-59.644 c -2.5,-2.27 -2.5,-2.77 -2.5,-9.782 h 103.25 l 7.53,45.61" /><path
         id="path56"
         style="fill:#000000;fill-opacity:1;fill-rule:nonzero;stroke:none"
         d="m 1592.5,982.344 h -8.53 c -0.75,-5.5 -3.25,-20.301 -6.52,-22.801 -2,-1.52 -21.3,-1.52 -24.81,-1.52 h -46.11 c 26.31,23.313 35.08,30.332 50.13,42.107 18.55,14.8 35.84,30.33 35.84,54.14 0,30.34 -26.58,48.89 -58.66,48.89 -31.08,0 -52.12,-21.82 -52.12,-44.87 0,-12.77 10.77,-14.04 13.28,-14.04 6.02,0 13.28,4.27 13.28,13.29 0,4.5 -1.75,13.28 -14.8,13.28 7.78,17.81 24.81,23.31 36.59,23.31 25.06,0 38.11,-19.56 38.11,-39.86 0,-21.8 -15.55,-39.09 -23.56,-48.11 l -60.41,-59.644 c -2.5,-2.27 -2.5,-2.77 -2.5,-9.782 h 103.25 l 7.53,45.61" /><path
         id="path58"
         style="fill:#000000;fill-opacity:1;fill-rule:nonzero;stroke:none"
         d="m 2049.2,1031.04 c -14.36,-24.07 -28.36,-29.09 -44.17,-30.16 -4.31,-0.36 -7.55,-0.36 -7.55,-7.196 0,-2.161 1.8,-3.95 4.67,-3.95 9.7,0 20.83,1.079 30.89,1.079 11.86,0 24.42,-1.079 35.92,-1.079 2.14,0 6.81,0 6.81,6.829 0,3.957 -3.23,4.317 -5.75,4.317 -8.25,0.71 -16.87,3.57 -16.87,12.55 0,4.32 2.16,8.27 5.03,13.28 l 27.3,45.99 h 90.14 c 0.72,-7.56 5.75,-56.4 5.75,-59.99 0,-10.78 -18.67,-11.83 -25.86,-11.83 -5.03,0 -8.62,0 -8.62,-7.196 0,-3.95 4.31,-3.95 5.03,-3.95 14.72,0 30.17,1.079 44.89,1.079 8.98,0 31.61,-1.079 40.59,-1.079 2.14,0 6.45,0 6.45,7.192 0,3.954 -3.59,3.954 -8.25,3.954 -22.27,0 -22.27,2.5 -23.34,12.91 l -21.92,224.48 c -0.72,7.16 -0.72,8.61 -6.81,8.61 -5.75,0 -7.19,-2.52 -9.34,-6.09 l -124.98,-209.75 z m 43.11,52.78 70.75,118.52 11.48,-118.52 h -82.23" /><path
         id="path60"
         style="fill:#000000;fill-opacity:1;fill-rule:nonzero;stroke:none"
         d="m 2380.5,982.344 h -8.53 c -0.75,-5.5 -3.25,-20.301 -6.52,-22.801 -2,-1.52 -21.3,-1.52 -24.81,-1.52 h -46.11 c 26.31,23.313 35.08,30.332 50.13,42.107 18.55,14.8 35.84,30.33 35.84,54.14 0,30.34 -26.58,48.89 -58.66,48.89 -31.08,0 -52.12,-21.82 -52.12,-44.87 0,-12.77 10.77,-14.04 13.28,-14.04 6.02,0 13.28,4.27 13.28,13.29 0,4.5 -1.75,13.28 -14.8,13.28 7.78,17.81 24.81,23.31 36.59,23.31 25.06,0 38.11,-19.56 38.11,-39.86 0,-21.8 -15.55,-39.09 -23.56,-48.11 l -60.41,-59.644 c -2.5,-2.27 -2.5,-2.77 -2.5,-9.782 h 103.25 l 7.53,45.61" /><path
         id="path62"
         style="fill:#000000;fill-opacity:1;fill-rule:nonzero;stroke:none"
         d="m 2465.34,1020.45 c 19.55,0 33.59,-13.54 33.59,-40.356 0,-31.078 -18.05,-40.36 -32.59,-40.36 -10.02,0 -32.08,2.77 -42.61,17.551 11.78,0.5 14.55,8.778 14.55,14.051 0,8.019 -6.02,13.777 -13.8,13.777 -7.02,0 -14.03,-4.269 -14.03,-14.55 0,-23.547 26.06,-38.84 56.39,-38.84 34.84,0 58.91,23.312 58.91,48.382 0,19.551 -16.05,39.095 -43.61,44.855 26.31,9.54 35.84,28.33 35.84,43.61 0,19.81 -22.81,34.59 -50.64,34.59 -27.81,0 -49.12,-13.53 -49.12,-33.57 0,-8.54 5.52,-13.3 13.05,-13.3 7.77,0 12.78,5.76 12.78,12.77 0,7.28 -5.02,12.53 -12.78,13.05 8.77,11.02 26.06,13.78 35.33,13.78 11.28,0 27.08,-5.51 27.08,-27.33 0,-10.52 -3.52,-22.04 -10.03,-29.81 -8.27,-9.53 -15.28,-10.03 -27.81,-10.78 -6.27,-0.5 -6.78,-0.5 -8.03,-0.75 -0.5,0 -2.5,-0.5 -2.5,-3.27 0,-3.5 2.25,-3.5 6.52,-3.5 h 13.53" /><path
         id="path64"
         style="fill:#000000;fill-opacity:1;fill-rule:nonzero;stroke:none"
         d="m 2981.2,1031.04 c -14.36,-24.07 -28.36,-29.09 -44.17,-30.16 -4.31,-0.36 -7.55,-0.36 -7.55,-7.196 0,-2.161 1.8,-3.95 4.67,-3.95 9.7,0 20.83,1.079 30.89,1.079 11.86,0 24.42,-1.079 35.92,-1.079 2.14,0 6.81,0 6.81,6.829 0,3.957 -3.23,4.317 -5.75,4.317 -8.25,0.71 -16.87,3.57 -16.87,12.55 0,4.32 2.16,8.27 5.03,13.28 l 27.3,45.99 h 90.14 c 0.72,-7.56 5.75,-56.4 5.75,-59.99 0,-10.78 -18.67,-11.83 -25.86,-11.83 -5.03,0 -8.62,0 -8.62,-7.196 0,-3.95 4.31,-3.95 5.03,-3.95 14.72,0 30.17,1.079 44.89,1.079 8.98,0 31.61,-1.079 40.59,-1.079 2.14,0 6.45,0 6.45,7.192 0,3.954 -3.59,3.954 -8.25,3.954 -22.27,0 -22.27,2.5 -23.34,12.91 l -21.92,224.48 c -0.72,7.16 -0.72,8.61 -6.81,8.61 -5.75,0 -7.19,-2.52 -9.34,-6.09 l -124.98,-209.75 z m 43.11,52.78 70.75,118.52 11.48,-118.52 h -82.23" /><path
         id="path66"
         style="fill:#000000;fill-opacity:1;fill-rule:nonzero;stroke:none"
         d="m 3312.5,982.344 h -8.53 c -0.75,-5.5 -3.25,-20.301 -6.52,-22.801 -2,-1.52 -21.3,-1.52 -24.81,-1.52 h -46.11 c 26.31,23.313 35.08,30.332 50.13,42.107 18.55,14.8 35.84,30.33 35.84,54.14 0,30.34 -26.58,48.89 -58.66,48.89 -31.08,0 -52.12,-21.82 -52.12,-44.87 0,-12.77 10.77,-14.04 13.28,-14.04 6.02,0 13.28,4.27 13.28,13.29 0,4.5 -1.75,13.28 -14.8,13.28 7.78,17.81 24.81,23.31 36.59,23.31 25.06,0 38.11,-19.56 38.11,-39.86 0,-21.8 -15.55,-39.09 -23.56,-48.11 l -60.41,-59.644 c -2.5,-2.27 -2.5,-2.77 -2.5,-9.782 h 103.25 l 7.53,45.61" /><path
         id="path68"
         style="fill:#000000;fill-opacity:1;fill-rule:nonzero;stroke:none"
         d="m 3461.51,977.844 v 9.019 h -27.83 v 111.777 c 0,5.27 0,7.02 -5.52,7.02 -3,0 -4.02,0 -6.52,-3.5 l -82.95,-115.297 v -9.019 h 73.69 v -20.559 c 0,-8.519 0,-11.531 -20.31,-11.531 h -6.77 v -9.02 c 12.53,0.5 28.58,1 37.59,1 9.28,0 25.31,-0.5 37.84,-1 v 9.02 h -6.77 c -20.3,0 -20.3,3.019 -20.3,11.531 v 20.559 h 27.83 z m -47.37,100.746 v -91.727 h -66.17 l 66.17,91.727" /><path
         id="path70"
         style="fill:#000000;fill-opacity:1;fill-rule:nonzero;stroke:none"
         d="m 186.203,601.035 c -14.359,-24.062 -28.359,-29.09 -44.172,-30.16 -4.308,-0.359 -7.551,-0.359 -7.551,-7.191 0,-2.161 1.801,-3.95 4.672,-3.95 9.7,0 20.828,1.079 30.891,1.079 11.859,0 24.418,-1.079 35.918,-1.079 2.141,0 6.812,0 6.812,6.829 0,3.953 -3.23,4.312 -5.75,4.312 -8.25,0.719 -16.871,3.578 -16.871,12.559 0,4.312 2.161,8.269 5.032,13.281 l 27.296,45.98 h 90.141 c 0.723,-7.55 5.75,-56.39 5.75,-59.98 0,-10.781 -18.668,-11.84 -25.859,-11.84 -5.032,0 -8.621,0 -8.621,-7.191 0,-3.95 4.312,-3.95 5.031,-3.95 14.719,0 30.172,1.079 44.891,1.079 8.98,0 31.609,-1.079 40.589,-1.079 2.141,0 6.45,0 6.45,7.192 0,3.949 -3.59,3.949 -8.25,3.949 -22.27,0 -22.27,2.5 -23.34,12.918 l -21.918,224.473 c -0.723,7.168 -0.723,8.609 -6.813,8.609 -5.75,0 -7.187,-2.52 -9.34,-6.09 l -124.98,-209.75 z m 43.11,52.789 70.75,118.52 11.48,-118.52 h -82.23" /><path
         id="path72"
         style="fill:#000000;fill-opacity:1;fill-rule:nonzero;stroke:none"
         d="m 459.344,589.453 c 19.547,0 33.59,-13.547 33.59,-40.359 0,-31.078 -18.051,-40.36 -32.59,-40.36 -10.024,0 -32.082,2.77 -42.614,17.551 11.782,0.5 14.551,8.778 14.551,14.051 0,8.019 -6.019,13.777 -13.801,13.777 -7.019,0 -14.027,-4.269 -14.027,-14.55 0,-23.547 26.059,-38.84 56.391,-38.84 34.84,0 58.906,23.312 58.906,48.382 0,19.551 -16.047,39.09 -43.609,44.86 26.312,9.531 35.839,28.328 35.839,43.609 0,19.809 -22.808,34.59 -50.636,34.59 -27.813,0 -49.121,-13.531 -49.121,-33.578 0,-8.531 5.519,-13.301 13.05,-13.301 7.77,0 12.778,5.77 12.778,12.778 0,7.281 -5.02,12.531 -12.778,13.05 8.77,11.02 26.059,13.782 35.329,13.782 11.281,0 27.082,-5.52 27.082,-27.332 0,-10.52 -3.524,-22.047 -10.032,-29.809 -8.269,-9.531 -15.281,-10.031 -27.808,-10.781 -6.274,-0.5 -6.781,-0.5 -8.031,-0.75 -0.5,0 -2.5,-0.5 -2.5,-3.27 0,-3.5 2.25,-3.5 6.519,-3.5 h 13.531" /><path
         id="path74"
         style="fill:#000000;fill-opacity:1;fill-rule:nonzero;stroke:none"
         d="m 617.891,665.145 c 0,6.769 -0.5,7.019 -7.528,7.019 -16.031,-15.801 -38.84,-16.051 -49.121,-16.051 v -9.019 c 6.02,0 22.559,0 36.34,7.019 V 526.285 c 0,-8.269 0,-11.531 -25.059,-11.531 H 563 v -9.02 c 4.5,0.25 35.332,1 44.613,1 7.77,0 39.34,-0.75 44.86,-1 v 9.02 h -9.52 c -25.062,0 -25.062,3.269 -25.062,11.531 v 138.86" /><path
         id="path76"
         style="fill:#000000;fill-opacity:1;fill-rule:nonzero;stroke:none"
         d="m 1118.2,601.035 c -14.36,-24.062 -28.36,-29.09 -44.17,-30.16 -4.31,-0.359 -7.55,-0.359 -7.55,-7.191 0,-2.161 1.8,-3.95 4.67,-3.95 9.7,0 20.83,1.079 30.89,1.079 11.86,0 24.42,-1.079 35.92,-1.079 2.14,0 6.81,0 6.81,6.829 0,3.953 -3.23,4.312 -5.75,4.312 -8.25,0.719 -16.87,3.578 -16.87,12.559 0,4.312 2.16,8.269 5.03,13.281 l 27.3,45.98 h 90.14 c 0.72,-7.55 5.75,-56.39 5.75,-59.98 0,-10.781 -18.67,-11.84 -25.86,-11.84 -5.03,0 -8.62,0 -8.62,-7.191 0,-3.95 4.31,-3.95 5.03,-3.95 14.72,0 30.17,1.079 44.89,1.079 8.98,0 31.61,-1.079 40.59,-1.079 2.14,0 6.45,0 6.45,7.192 0,3.949 -3.59,3.949 -8.25,3.949 -22.27,0 -22.27,2.5 -23.34,12.918 l -21.92,224.473 c -0.72,7.168 -0.72,8.609 -6.81,8.609 -5.75,0 -7.19,-2.52 -9.34,-6.09 l -124.98,-209.75 z m 43.11,52.789 70.75,118.52 11.48,-118.52 h -82.23" /><path
         id="path78"
         style="fill:#000000;fill-opacity:1;fill-rule:nonzero;stroke:none"
         d="m 1391.34,589.453 c 19.55,0 33.59,-13.547 33.59,-40.359 0,-31.078 -18.05,-40.36 -32.59,-40.36 -10.02,0 -32.08,2.77 -42.61,17.551 11.78,0.5 14.55,8.778 14.55,14.051 0,8.019 -6.02,13.777 -13.8,13.777 -7.02,0 -14.03,-4.269 -14.03,-14.55 0,-23.547 26.06,-38.84 56.39,-38.84 34.84,0 58.91,23.312 58.91,48.382 0,19.551 -16.05,39.09 -43.61,44.86 26.31,9.531 35.84,28.328 35.84,43.609 0,19.809 -22.81,34.59 -50.64,34.59 -27.81,0 -49.12,-13.531 -49.12,-33.578 0,-8.531 5.52,-13.301 13.05,-13.301 7.77,0 12.78,5.77 12.78,12.778 0,7.281 -5.02,12.531 -12.78,13.05 8.77,11.02 26.06,13.782 35.33,13.782 11.28,0 27.08,-5.52 27.08,-27.332 0,-10.52 -3.52,-22.047 -10.03,-29.809 -8.27,-9.531 -15.28,-10.031 -27.81,-10.781 -6.27,-0.5 -6.78,-0.5 -8.03,-0.75 -0.5,0 -2.5,-0.5 -2.5,-3.27 0,-3.5 2.25,-3.5 6.52,-3.5 h 13.53" /><path
         id="path80"
         style="fill:#000000;fill-opacity:1;fill-rule:nonzero;stroke:none"
         d="m 1592.5,551.344 h -8.53 c -0.75,-5.5 -3.25,-20.301 -6.52,-22.801 -2,-1.52 -21.3,-1.52 -24.81,-1.52 h -46.11 c 26.31,23.313 35.08,30.332 50.13,42.11 18.55,14.801 35.84,30.332 35.84,54.14 0,30.332 -26.58,48.883 -58.66,48.883 -31.08,0 -52.12,-21.812 -52.12,-44.863 0,-12.777 10.77,-14.047 13.28,-14.047 6.02,0 13.28,4.27 13.28,13.297 0,4.5 -1.75,13.281 -14.8,13.281 7.78,17.801 24.81,23.309 36.59,23.309 25.06,0 38.11,-19.559 38.11,-39.86 0,-21.8 -15.55,-39.089 -23.56,-48.117 l -60.41,-59.64 c -2.5,-2.27 -2.5,-2.77 -2.5,-9.782 h 103.25 l 7.53,45.61" /><path
         id="path82"
         style="fill:#000000;fill-opacity:1;fill-rule:nonzero;stroke:none"
         d="m 2049.2,601.035 c -14.36,-24.062 -28.36,-29.09 -44.17,-30.16 -4.31,-0.359 -7.55,-0.359 -7.55,-7.191 0,-2.161 1.8,-3.95 4.67,-3.95 9.7,0 20.83,1.079 30.89,1.079 11.86,0 24.42,-1.079 35.92,-1.079 2.14,0 6.81,0 6.81,6.829 0,3.953 -3.23,4.312 -5.75,4.312 -8.25,0.719 -16.87,3.578 -16.87,12.559 0,4.312 2.16,8.269 5.03,13.281 l 27.3,45.98 h 90.14 c 0.72,-7.55 5.75,-56.39 5.75,-59.98 0,-10.781 -18.67,-11.84 -25.86,-11.84 -5.03,0 -8.62,0 -8.62,-7.191 0,-3.95 4.31,-3.95 5.03,-3.95 14.72,0 30.17,1.079 44.89,1.079 8.98,0 31.61,-1.079 40.59,-1.079 2.14,0 6.45,0 6.45,7.192 0,3.949 -3.59,3.949 -8.25,3.949 -22.27,0 -22.27,2.5 -23.34,12.918 l -21.92,224.473 c -0.72,7.168 -0.72,8.609 -6.81,8.609 -5.75,0 -7.19,-2.52 -9.34,-6.09 l -124.98,-209.75 z m 43.11,52.789 70.75,118.52 11.48,-118.52 h -82.23" /><path
         id="path84"
         style="fill:#000000;fill-opacity:1;fill-rule:nonzero;stroke:none"
         d="m 2322.34,589.453 c 19.55,0 33.59,-13.547 33.59,-40.359 0,-31.078 -18.05,-40.36 -32.59,-40.36 -10.02,0 -32.08,2.77 -42.61,17.551 11.78,0.5 14.55,8.778 14.55,14.051 0,8.019 -6.02,13.777 -13.8,13.777 -7.02,0 -14.03,-4.269 -14.03,-14.55 0,-23.547 26.06,-38.84 56.39,-38.84 34.84,0 58.91,23.312 58.91,48.382 0,19.551 -16.05,39.09 -43.61,44.86 26.31,9.531 35.84,28.328 35.84,43.609 0,19.809 -22.81,34.59 -50.64,34.59 -27.81,0 -49.12,-13.531 -49.12,-33.578 0,-8.531 5.52,-13.301 13.05,-13.301 7.77,0 12.78,5.77 12.78,12.778 0,7.281 -5.02,12.531 -12.78,13.05 8.77,11.02 26.06,13.782 35.33,13.782 11.28,0 27.08,-5.52 27.08,-27.332 0,-10.52 -3.52,-22.047 -10.03,-29.809 -8.27,-9.531 -15.28,-10.031 -27.81,-10.781 -6.27,-0.5 -6.78,-0.5 -8.03,-0.75 -0.5,0 -2.5,-0.5 -2.5,-3.27 0,-3.5 2.25,-3.5 6.52,-3.5 h 13.53" /><path
         id="path86"
         style="fill:#000000;fill-opacity:1;fill-rule:nonzero;stroke:none"
         d="m 2465.34,589.453 c 19.55,0 33.59,-13.547 33.59,-40.359 0,-31.078 -18.05,-40.36 -32.59,-40.36 -10.02,0 -32.08,2.77 -42.61,17.551 11.78,0.5 14.55,8.778 14.55,14.051 0,8.019 -6.02,13.777 -13.8,13.777 -7.02,0 -14.03,-4.269 -14.03,-14.55 0,-23.547 26.06,-38.84 56.39,-38.84 34.84,0 58.91,23.312 58.91,48.382 0,19.551 -16.05,39.09 -43.61,44.86 26.31,9.531 35.84,28.328 35.84,43.609 0,19.809 -22.81,34.59 -50.64,34.59 -27.81,0 -49.12,-13.531 -49.12,-33.578 0,-8.531 5.52,-13.301 13.05,-13.301 7.77,0 12.78,5.77 12.78,12.778 0,7.281 -5.02,12.531 -12.78,13.05 8.77,11.02 26.06,13.782 35.33,13.782 11.28,0 27.08,-5.52 27.08,-27.332 0,-10.52 -3.52,-22.047 -10.03,-29.809 -8.27,-9.531 -15.28,-10.031 -27.81,-10.781 -6.27,-0.5 -6.78,-0.5 -8.03,-0.75 -0.5,0 -2.5,-0.5 -2.5,-3.27 0,-3.5 2.25,-3.5 6.52,-3.5 h 13.53" /><path
         id="path88"
         style="fill:#000000;fill-opacity:1;fill-rule:nonzero;stroke:none"
         d="m 2981.2,601.035 c -14.36,-24.062 -28.36,-29.09 -44.17,-30.16 -4.31,-0.359 -7.55,-0.359 -7.55,-7.191 0,-2.161 1.8,-3.95 4.67,-3.95 9.7,0 20.83,1.079 30.89,1.079 11.86,0 24.42,-1.079 35.92,-1.079 2.14,0 6.81,0 6.81,6.829 0,3.953 -3.23,4.312 -5.75,4.312 -8.25,0.719 -16.87,3.578 -16.87,12.559 0,4.312 2.16,8.269 5.03,13.281 l 27.3,45.98 h 90.14 c 0.72,-7.55 5.75,-56.39 5.75,-59.98 0,-10.781 -18.67,-11.84 -25.86,-11.84 -5.03,0 -8.62,0 -8.62,-7.191 0,-3.95 4.31,-3.95 5.03,-3.95 14.72,0 30.17,1.079 44.89,1.079 8.98,0 31.61,-1.079 40.59,-1.079 2.14,0 6.45,0 6.45,7.192 0,3.949 -3.59,3.949 -8.25,3.949 -22.27,0 -22.27,2.5 -23.34,12.918 l -21.92,224.473 c -0.72,7.168 -0.72,8.609 -6.81,8.609 -5.75,0 -7.19,-2.52 -9.34,-6.09 l -124.98,-209.75 z m 43.11,52.789 70.75,118.52 11.48,-118.52 h -82.23" /><path
         id="path90"
         style="fill:#000000;fill-opacity:1;fill-rule:nonzero;stroke:none"
         d="m 3254.34,589.453 c 19.55,0 33.59,-13.547 33.59,-40.359 0,-31.078 -18.05,-40.36 -32.59,-40.36 -10.02,0 -32.08,2.77 -42.61,17.551 11.78,0.5 14.55,8.778 14.55,14.051 0,8.019 -6.02,13.777 -13.8,13.777 -7.02,0 -14.03,-4.269 -14.03,-14.55 0,-23.547 26.06,-38.84 56.39,-38.84 34.84,0 58.91,23.312 58.91,48.382 0,19.551 -16.05,39.09 -43.61,44.86 26.31,9.531 35.84,28.328 35.84,43.609 0,19.809 -22.81,34.59 -50.64,34.59 -27.81,0 -49.12,-13.531 -49.12,-33.578 0,-8.531 5.52,-13.301 13.05,-13.301 7.77,0 12.78,5.77 12.78,12.778 0,7.281 -5.02,12.531 -12.78,13.05 8.77,11.02 26.06,13.782 35.33,13.782 11.28,0 27.08,-5.52 27.08,-27.332 0,-10.52 -3.52,-22.047 -10.03,-29.809 -8.27,-9.531 -15.28,-10.031 -27.81,-10.781 -6.27,-0.5 -6.78,-0.5 -8.03,-0.75 -0.5,0 -2.5,-0.5 -2.5,-3.27 0,-3.5 2.25,-3.5 6.52,-3.5 h 13.53" /><path
         id="path92"
         style="fill:#000000;fill-opacity:1;fill-rule:nonzero;stroke:none"
         d="m 3461.51,546.844 v 9.019 h -27.83 v 111.782 c 0,5.269 0,7.019 -5.52,7.019 -3,0 -4.02,0 -6.52,-3.5 l -82.95,-115.301 v -9.019 h 73.69 v -20.559 c 0,-8.519 0,-11.531 -20.31,-11.531 h -6.77 v -9.02 c 12.53,0.5 28.58,1 37.59,1 9.28,0 25.31,-0.5 37.84,-1 v 9.02 h -6.77 c -20.3,0 -20.3,3.019 -20.3,11.531 v 20.559 h 27.83 z m -47.37,100.75 v -91.731 h -66.17 l 66.17,91.731" /><path
         id="path94"
         style="fill:#000000;fill-opacity:1;fill-rule:nonzero;stroke:none"
         d="m 186.203,171.035 c -14.359,-24.062 -28.359,-29.09 -44.172,-30.16 -4.308,-0.359 -7.551,-0.359 -7.551,-7.191 0,-2.161 1.801,-3.95 4.672,-3.95 9.7,0 20.828,1.079 30.891,1.079 11.859,0 24.418,-1.079 35.918,-1.079 2.141,0 6.812,0 6.812,6.829 0,3.953 -3.23,4.312 -5.75,4.312 -8.25,0.719 -16.871,3.578 -16.871,12.559 0,4.312 2.161,8.269 5.032,13.281 l 27.296,45.98 h 90.141 c 0.723,-7.55 5.75,-56.39 5.75,-59.98 0,-10.781 -18.668,-11.84 -25.859,-11.84 -5.032,0 -8.621,0 -8.621,-7.191 0,-3.95 4.312,-3.95 5.031,-3.95 14.719,0 30.172,1.079 44.891,1.079 8.98,0 31.609,-1.079 40.589,-1.079 2.141,0 6.45,0 6.45,7.192 0,3.949 -3.59,3.949 -8.25,3.949 -22.27,0 -22.27,2.5 -23.34,12.918 l -21.918,224.473 c -0.723,7.168 -0.723,8.609 -6.813,8.609 -5.75,0 -7.187,-2.52 -9.34,-6.09 l -124.98,-209.75 z m 43.11,52.789 70.75,118.52 11.48,-118.52 h -82.23" /><path
         id="path96"
         style="fill:#000000;fill-opacity:1;fill-rule:nonzero;stroke:none"
         d="m 523.512,116.844 v 9.019 h -27.828 v 111.782 c 0,5.269 0,7.019 -5.524,7.019 -3,0 -4.019,0 -6.519,-3.5 l -82.95,-115.301 v -9.019 h 73.692 V 96.2852 c 0,-8.5196 0,-11.5313 -20.313,-11.5313 h -6.769 v -9.0195 c 12.531,0.5 28.582,1 37.59,1 9.281,0 25.312,-0.5 37.839,-1 v 9.0195 h -6.769 c -20.301,0 -20.301,3.0195 -20.301,11.5313 v 20.5588 h 27.832 z m -47.371,100.75 v -91.731 h -66.168 l 66.168,91.731" /><path
         id="path98"
         style="fill:#000000;fill-opacity:1;fill-rule:nonzero;stroke:none"
         d="m 617.891,235.145 c 0,6.769 -0.5,7.019 -7.528,7.019 -16.031,-15.801 -38.84,-16.051 -49.121,-16.051 v -9.019 c 6.02,0 22.559,0 36.34,7.019 V 96.2852 c 0,-8.2696 0,-11.5313 -25.059,-11.5313 H 563 v -9.0195 c 4.5,0.25 35.332,1 44.613,1 7.77,0 39.34,-0.75 44.86,-1 v 9.0195 h -9.52 c -25.062,0 -25.062,3.2695 -25.062,11.5313 V 235.145" /><path
         id="path100"
         style="fill:#000000;fill-opacity:1;fill-rule:nonzero;stroke:none"
         d="m 1118.2,171.035 c -14.36,-24.062 -28.36,-29.09 -44.17,-30.16 -4.31,-0.359 -7.55,-0.359 -7.55,-7.191 0,-2.161 1.8,-3.95 4.67,-3.95 9.7,0 20.83,1.079 30.89,1.079 11.86,0 24.42,-1.079 35.92,-1.079 2.14,0 6.81,0 6.81,6.829 0,3.953 -3.23,4.312 -5.75,4.312 -8.25,0.719 -16.87,3.578 -16.87,12.559 0,4.312 2.16,8.269 5.03,13.281 l 27.3,45.98 h 90.14 c 0.72,-7.55 5.75,-56.39 5.75,-59.98 0,-10.781 -18.67,-11.84 -25.86,-11.84 -5.03,0 -8.62,0 -8.62,-7.191 0,-3.95 4.31,-3.95 5.03,-3.95 14.72,0 30.17,1.079 44.89,1.079 8.98,0 31.61,-1.079 40.59,-1.079 2.14,0 6.45,0 6.45,7.192 0,3.949 -3.59,3.949 -8.25,3.949 -22.27,0 -22.27,2.5 -23.34,12.918 l -21.92,224.473 c -0.72,7.168 -0.72,8.609 -6.81,8.609 -5.75,0 -7.19,-2.52 -9.34,-6.09 l -124.98,-209.75 z m 43.11,52.789 70.75,118.52 11.48,-118.52 h -82.23" /><path
         id="path102"
         style="fill:#000000;fill-opacity:1;fill-rule:nonzero;stroke:none"
         d="m 1455.51,116.844 v 9.019 h -27.83 v 111.782 c 0,5.269 0,7.019 -5.52,7.019 -3,0 -4.02,0 -6.52,-3.5 l -82.95,-115.301 v -9.019 h 73.69 V 96.2852 c 0,-8.5196 0,-11.5313 -20.31,-11.5313 h -6.77 v -9.0195 c 12.53,0.5 28.58,1 37.59,1 9.28,0 25.31,-0.5 37.84,-1 v 9.0195 h -6.77 c -20.3,0 -20.3,3.0195 -20.3,11.5313 v 20.5588 h 27.83 z m -47.37,100.75 v -91.731 h -66.17 l 66.17,91.731" /><path
         id="path104"
         style="fill:#000000;fill-opacity:1;fill-rule:nonzero;stroke:none"
         d="m 1592.5,121.344 h -8.53 c -0.75,-5.5 -3.25,-20.301 -6.52,-22.801 -2,-1.5196 -21.3,-1.5196 -24.81,-1.5196 h -46.11 c 26.31,23.3126 35.08,30.3316 50.13,42.1096 18.55,14.801 35.84,30.332 35.84,54.14 0,30.332 -26.58,48.883 -58.66,48.883 -31.08,0 -52.12,-21.812 -52.12,-44.863 0,-12.777 10.77,-14.047 13.28,-14.047 6.02,0 13.28,4.27 13.28,13.297 0,4.5 -1.75,13.281 -14.8,13.281 7.78,17.801 24.81,23.309 36.59,23.309 25.06,0 38.11,-19.559 38.11,-39.86 0,-21.8 -15.55,-39.089 -23.56,-48.117 l -60.41,-59.6404 c -2.5,-2.2695 -2.5,-2.7695 -2.5,-9.7812 h 103.25 l 7.53,45.6096" /><path
         id="path106"
         style="fill:#000000;fill-opacity:1;fill-rule:nonzero;stroke:none"
         d="m 2049.2,171.035 c -14.36,-24.062 -28.36,-29.09 -44.17,-30.16 -4.31,-0.359 -7.55,-0.359 -7.55,-7.191 0,-2.161 1.8,-3.95 4.67,-3.95 9.7,0 20.83,1.079 30.89,1.079 11.86,0 24.42,-1.079 35.92,-1.079 2.14,0 6.81,0 6.81,6.829 0,3.953 -3.23,4.312 -5.75,4.312 -8.25,0.719 -16.87,3.578 -16.87,12.559 0,4.312 2.16,8.269 5.03,13.281 l 27.3,45.98 h 90.14 c 0.72,-7.55 5.75,-56.39 5.75,-59.98 0,-10.781 -18.67,-11.84 -25.86,-11.84 -5.03,0 -8.62,0 -8.62,-7.191 0,-3.95 4.31,-3.95 5.03,-3.95 14.72,0 30.17,1.079 44.89,1.079 8.98,0 31.61,-1.079 40.59,-1.079 2.14,0 6.45,0 6.45,7.192 0,3.949 -3.59,3.949 -8.25,3.949 -22.27,0 -22.27,2.5 -23.34,12.918 l -21.92,224.473 c -0.72,7.168 -0.72,8.609 -6.81,8.609 -5.75,0 -7.19,-2.52 -9.34,-6.09 l -124.98,-209.75 z m 43.11,52.789 70.75,118.52 11.48,-118.52 h -82.23" /><path
         id="path108"
         style="fill:#000000;fill-opacity:1;fill-rule:nonzero;stroke:none"
         d="m 2386.51,116.844 v 9.019 h -27.83 v 111.782 c 0,5.269 0,7.019 -5.52,7.019 -3,0 -4.02,0 -6.52,-3.5 l -82.95,-115.301 v -9.019 h 73.69 V 96.2852 c 0,-8.5196 0,-11.5313 -20.31,-11.5313 h -6.77 v -9.0195 c 12.53,0.5 28.58,1 37.59,1 9.28,0 25.31,-0.5 37.84,-1 v 9.0195 h -6.77 c -20.3,0 -20.3,3.0195 -20.3,11.5313 v 20.5588 h 27.83 z m -47.37,100.75 v -91.731 h -66.17 l 66.17,91.731" /><path
         id="path110"
         style="fill:#000000;fill-opacity:1;fill-rule:nonzero;stroke:none"
         d="m 2465.34,159.453 c 19.55,0 33.59,-13.547 33.59,-40.359 0,-31.0784 -18.05,-40.3596 -32.59,-40.3596 -10.02,0 -32.08,2.7695 -42.61,17.5508 11.78,0.5 14.55,8.7778 14.55,14.0508 0,8.019 -6.02,13.777 -13.8,13.777 -7.02,0 -14.03,-4.269 -14.03,-14.55 0,-23.5474 26.06,-38.8403 56.39,-38.8403 34.84,0 58.91,23.3125 58.91,48.3823 0,19.551 -16.05,39.09 -43.61,44.86 26.31,9.531 35.84,28.328 35.84,43.609 0,19.809 -22.81,34.59 -50.64,34.59 -27.81,0 -49.12,-13.531 -49.12,-33.578 0,-8.531 5.52,-13.301 13.05,-13.301 7.77,0 12.78,5.77 12.78,12.778 0,7.281 -5.02,12.531 -12.78,13.05 8.77,11.02 26.06,13.782 35.33,13.782 11.28,0 27.08,-5.52 27.08,-27.332 0,-10.52 -3.52,-22.047 -10.03,-29.809 -8.27,-9.531 -15.28,-10.031 -27.81,-10.781 -6.27,-0.5 -6.78,-0.5 -8.03,-0.75 -0.5,0 -2.5,-0.5 -2.5,-3.27 0,-3.5 2.25,-3.5 6.52,-3.5 h 13.53" /><path
         id="path112"
         style="fill:#000000;fill-opacity:1;fill-rule:nonzero;stroke:none"
         d="m 2981.2,171.035 c -14.36,-24.062 -28.36,-29.09 -44.17,-30.16 -4.31,-0.359 -7.55,-0.359 -7.55,-7.191 0,-2.161 1.8,-3.95 4.67,-3.95 9.7,0 20.83,1.079 30.89,1.079 11.86,0 24.42,-1.079 35.92,-1.079 2.14,0 6.81,0 6.81,6.829 0,3.953 -3.23,4.312 -5.75,4.312 -8.25,0.719 -16.87,3.578 -16.87,12.559 0,4.312 2.16,8.269 5.03,13.281 l 27.3,45.98 h 90.14 c 0.72,-7.55 5.75,-56.39 5.75,-59.98 0,-10.781 -18.67,-11.84 -25.86,-11.84 -5.03,0 -8.62,0 -8.62,-7.191 0,-3.95 4.31,-3.95 5.03,-3.95 14.72,0 30.17,1.079 44.89,1.079 8.98,0 31.61,-1.079 40.59,-1.079 2.14,0 6.45,0 6.45,7.192 0,3.949 -3.59,3.949 -8.25,3.949 -22.27,0 -22.27,2.5 -23.34,12.918 l -21.92,224.473 c -0.72,7.168 -0.72,8.609 -6.81,8.609 -5.75,0 -7.19,-2.52 -9.34,-6.09 l -124.98,-209.75 z m 43.11,52.789 70.75,118.52 11.48,-118.52 h -82.23" /><path
         id="path114"
         style="fill:#000000;fill-opacity:1;fill-rule:nonzero;stroke:none"
         d="m 3318.51,116.844 v 9.019 h -27.83 v 111.782 c 0,5.269 0,7.019 -5.52,7.019 -3,0 -4.02,0 -6.52,-3.5 l -82.95,-115.301 v -9.019 h 73.69 V 96.2852 c 0,-8.5196 0,-11.5313 -20.31,-11.5313 h -6.77 v -9.0195 c 12.53,0.5 28.58,1 37.59,1 9.28,0 25.31,-0.5 37.84,-1 v 9.0195 h -6.77 c -20.3,0 -20.3,3.0195 -20.3,11.5313 v 20.5588 h 27.83 z m -47.37,100.75 v -91.731 h -66.17 l 66.17,91.731" /><path
         id="path116"
         style="fill:#000000;fill-opacity:1;fill-rule:nonzero;stroke:none"
         d="m 3461.51,116.844 v 9.019 h -27.83 v 111.782 c 0,5.269 0,7.019 -5.52,7.019 -3,0 -4.02,0 -6.52,-3.5 l -82.95,-115.301 v -9.019 h 73.69 V 96.2852 c 0,-8.5196 0,-11.5313 -20.31,-11.5313 h -6.77 v -9.0195 c 12.53,0.5 28.58,1 37.59,1 9.28,0 25.31,-0.5 37.84,-1 v 9.0195 h -6.77 c -20.3,0 -20.3,3.0195 -20.3,11.5313 v 20.5588 h 27.83 z m -47.37,100.75 v -91.731 h -66.17 l 66.17,91.731" /><path
         id="path118"
         style="fill:#000000;fill-opacity:1;fill-rule:nonzero;stroke:none"
         d="m 3587.25,1075.64 h 24.78 v 646.09 h -119.59 v -24.78 h 94.81 v -621.31" /><path
         id="path120"
         style="fill:#000000;fill-opacity:1;fill-rule:nonzero;stroke:none"
         d="m 3587.25,859.891 h 24.7813 v 216.203 H 3587.25 Z" /><path
         id="path122"
         style="fill:#000000;fill-opacity:1;fill-rule:nonzero;stroke:none"
         d="m 3587.25,644.891 h 24.7813 V 861.094 H 3587.25 Z" /><path
         id="path124"
         style="fill:#000000;fill-opacity:1;fill-rule:nonzero;stroke:none"
         d="m 3587.25,24.7852 h -94.81 V 0.00390625 h 119.59 V 646.094 h -24.78 V 24.7852" /></g></g></svg>